<?xml version="1.0" encoding="UTF-8"?>
<svg version="1.1" xmlns="http://www.w3.org/2000/svg" width="512" height="512">
<path d="M0 0 C10.31912982 8.9462258 16.17134822 26.90313876 17.25146484 40.21728516 C17.98841471 62.84834567 13.84595543 79.4330171 1.43359375 98.40234375 C-2.1648409 103.90965457 -4.61713576 109.70248433 -6.94140625 115.83984375 C-6.32845703 115.78449463 -5.71550781 115.72914551 -5.08398438 115.67211914 C7.28962224 114.56039177 19.65328264 113.52402637 32.05859375 112.83984375 C32.2803125 111.916875 32.50203125 110.99390625 32.73046875 110.04296875 C35.53175095 99.44717397 40.27275515 90.85143119 46.12109375 81.62890625 C54.94256602 67.60008338 58.14492432 54.15650059 55.55859375 37.6484375 C53.61102327 29.8692213 49.99050555 22.9102902 45.74609375 16.15234375 C43.78789953 12.30848101 43.50656894 10.09832084 44.05859375 5.83984375 C45.71746149 2.19033473 47.51695105 -0.24575479 51.05859375 -2.16015625 C55.61873862 -3.26341711 57.8091767 -3.6956207 62.12109375 -1.84765625 C74.17693834 9.18215901 80.52439071 26.42221547 81.48046875 42.46875 C82.29536906 66.09895047 75.67389457 83.90172567 62.6015625 103.27734375 C60.60022164 106.46900913 60.60022164 106.46900913 58.05859375 112.83984375 C70.59859375 112.83984375 83.13859375 112.83984375 96.05859375 112.83984375 C97.37859375 108.54984375 98.69859375 104.25984375 100.05859375 99.83984375 C101.953125 95.67578125 101.953125 95.67578125 103.87109375 92.21484375 C104.21366211 91.58932617 104.55623047 90.96380859 104.90917969 90.31933594 C107.04919416 86.46336516 109.37252329 82.76752432 111.80859375 79.08984375 C120.15109504 66.34753013 121.92539736 51.58453732 119.5625 36.71875 C117.48870798 29.39603806 113.78374087 22.56676187 109.74609375 16.15234375 C107.78789953 12.30848101 107.50656894 10.09832084 108.05859375 5.83984375 C109.71746149 2.19033473 111.51695105 -0.24575479 115.05859375 -2.16015625 C119.71698444 -3.28718626 121.82104402 -3.72942913 126.18359375 -1.72265625 C137.55043231 8.40865638 144.00619814 24.67296946 145.30224609 39.65673828 C146.66224334 63.54621369 141.20678534 81.94847518 127.53735352 101.42797852 C125.82155252 104.22645929 124.61613696 107.06855653 123.3828125 110.109375 C122.94412842 111.18421143 122.50544434 112.25904785 122.0534668 113.36645508 C121.72515869 114.18267334 121.39685059 114.9988916 121.05859375 115.83984375 C121.80915039 115.89930176 122.55970703 115.95875977 123.33300781 116.02001953 C180.03002012 120.65793422 250.66614803 129.13016593 295.05859375 167.83984375 C295.74953125 168.43152344 296.44046875 169.02320313 297.15234375 169.6328125 C305.07729597 176.94948988 311.33910691 187.04333554 312.34179688 197.90869141 C312.46320735 201.43319628 312.47416419 204.93847975 312.43359375 208.46484375 C312.4183667 210.38538574 312.4183667 210.38538574 312.40283203 212.34472656 C311.57884636 263.68733757 291.89213864 314.49252865 259.05859375 353.83984375 C258.5898584 354.41009277 258.12112305 354.9803418 257.63818359 355.56787109 C246.94226995 368.5586102 235.38489463 380.52494073 222.05859375 390.83984375 C220.80539002 391.8443045 219.55283096 392.84956989 218.30078125 393.85546875 C207.78367624 402.20776644 196.74357697 409.238587 185.05859375 415.83984375 C183.9603125 416.46632813 183.9603125 416.46632813 182.83984375 417.10546875 C171.6615612 423.43434931 160.09741881 428.38613237 148.05859375 432.83984375 C146.9595874 433.25145752 146.9595874 433.25145752 145.83837891 433.67138672 C120.4745152 443.05015818 93.07520061 448.06885854 66.05859375 448.83984375 C65.32560059 448.86175781 64.59260742 448.88367188 63.83740234 448.90625 C-2.22931465 450.56795741 -70.39682252 428.69779975 -118.94140625 382.83984375 C-120.24935196 381.70955208 -121.56176873 380.58441064 -122.87890625 379.46484375 C-131.79153862 371.66629043 -139.65381855 363.16280907 -146.94140625 353.83984375 C-147.95040182 352.58323776 -148.95952447 351.32673381 -149.96875 350.0703125 C-175.19511514 318.30096571 -191.17496667 280.75583597 -197.94140625 240.83984375 C-198.0712793 240.10749512 -198.20115234 239.37514648 -198.33496094 238.62060547 C-200.01877139 228.7936613 -200.18860776 218.91629365 -200.31640625 208.96484375 C-200.34259033 207.73999268 -200.36877441 206.5151416 -200.39575195 205.25317383 C-200.42314033 190.32448137 -194.77211264 180.03051931 -184.75390625 169.21484375 C-146.59113385 133.42137873 -83.07139098 124.01783483 -32.94140625 117.83984375 C-32.79445312 117.14761719 -32.6475 116.45539063 -32.49609375 115.7421875 C-29.41144877 102.28675336 -24.57916668 91.06525323 -16.8125 79.73754883 C-8.44879477 67.50356263 -5.68321143 53.35115548 -8.328125 38.69726562 C-10.34565518 30.05416635 -13.86195945 22.92714057 -18.546875 15.39453125 C-20.40754536 11.98590823 -20.71660088 9.63829742 -19.94140625 5.83984375 C-17.97902094 1.52259607 -15.49105586 -1.1402964 -11.06640625 -2.91015625 C-6.50561722 -3.44671966 -3.71570094 -2.72879498 0 0 Z M4.80859375 138.83984375 C3.57496094 138.93523437 2.34132812 139.030625 1.0703125 139.12890625 C-1.93393858 139.36179393 -4.93779748 139.59883716 -7.94140625 139.83984375 C-7.44669069 145.66226539 -5.72711595 149.89421396 -3.00390625 155.02734375 C-2.64361328 155.72537109 -2.28332031 156.42339844 -1.91210938 157.14257812 C-0.53839065 159.80147017 0.83482998 162.44843035 2.3203125 165.046875 C3.76882066 168.56468053 2.9904718 172.24451284 2.05859375 175.83984375 C0.15795693 178.29227836 -1.1999548 179.46911802 -3.94140625 180.83984375 C-9.45396498 181.20132301 -12.37538373 181.2374806 -16.94140625 177.83984375 C-24.81867054 167.60536779 -29.58643801 155.47103705 -31.94140625 142.83984375 C-41.48118945 143.41708455 -50.79886228 144.84344449 -60.19140625 146.52734375 C-60.93673615 146.66022797 -61.68206604 146.79311218 -62.44998169 146.93002319 C-96.18878829 152.9825917 -131.09041423 161.63368408 -159.94140625 180.83984375 C-160.63621094 181.2678125 -161.33101562 181.69578125 -162.046875 182.13671875 C-168.10132226 186.03936466 -173.1517947 192.18668569 -175.94140625 198.83984375 C-176.96271482 203.9758474 -176.27481575 207.96581829 -173.50390625 212.40234375 C-163.41779729 225.91303855 -148.02400333 233.25899361 -132.94140625 239.83984375 C-132.15765625 240.27554688 -131.37390625 240.71125 -130.56640625 241.16015625 C-126.41182036 242.23589724 -123.00587682 240.98090457 -118.94140625 239.83984375 C-117.9447998 239.56720703 -116.94819336 239.29457031 -115.92138672 239.01367188 C-113.65007037 238.38789074 -111.37995266 237.75774815 -109.11083984 237.12402344 C-77.49014515 228.36141303 -45.08750101 223.25979799 -12.44140625 220.15234375 C-11.19101563 220.03286377 -9.940625 219.91338379 -8.65234375 219.7902832 C11.22231688 217.99964474 31.06310505 217.65163144 51.0078125 217.65454102 C53.85358115 217.65462166 56.69918666 217.64776126 59.54492188 217.6340332 C86.20767325 217.50769002 112.74164343 218.55974295 139.24609375 221.65234375 C139.98076874 221.73599182 140.71544373 221.81963989 141.47238159 221.90582275 C171.19935851 225.31067474 200.92276753 230.63248207 229.46020508 239.74365234 C230.38728271 240.03191895 231.31436035 240.32018555 232.26953125 240.6171875 C233.07696777 240.87749756 233.8844043 241.13780762 234.71630859 241.40600586 C240.06418984 242.39654004 244.81911971 239.84012895 249.62109375 237.71484375 C250.32564697 237.40353516 251.0302002 237.09222656 251.75610352 236.77148438 C264.99524599 230.80539229 282.16912845 222.12317315 288.05859375 207.83984375 C289.12704071 201.85654077 287.96015579 197.69765558 284.54296875 192.76171875 C284.053125 192.1275 283.56328125 191.49328125 283.05859375 190.83984375 C282.46175781 190.02644531 281.86492187 189.21304688 281.25 188.375 C247.31969879 149.1222986 168.23092681 143.5496671 120.05859375 139.83984375 C121.06608971 146.4248774 122.56295619 151.64415637 126.12109375 157.27734375 C129.61577397 163.01109342 131.53445596 166.93984169 131.05859375 173.83984375 C129.8190312 176.62885948 128.77408621 178.28334962 126.37109375 180.15234375 C121.88997677 181.48456772 117.78517909 181.45648137 113.43359375 179.90234375 C101.78849468 169.78949456 98.55065657 151.80809504 95.05859375 137.83984375 C81.85859375 137.83984375 68.65859375 137.83984375 55.05859375 137.83984375 C57.35077636 147.00857419 59.35707758 152.98288693 64.09375 160.59179688 C66.827054 165.31498179 67.42054262 168.50544981 66.6159668 173.91918945 C65.80004653 176.73077279 64.39345888 178.14176002 62.05859375 179.83984375 C58.85328731 181.44249697 55.54349294 181.18361524 52.05859375 180.83984375 C45.12128813 178.3622346 41.62230441 170.25036497 38.49609375 164.02734375 C34.82976555 155.71858698 33.07462124 146.66239494 31.05859375 137.83984375 C22.25620355 137.69414902 13.58080388 138.13501905 4.80859375 138.83984375 Z M-80.94140625 253.83984375 C-80.61140625 254.49984375 -80.28140625 255.15984375 -79.94140625 255.83984375 C-77.27053943 256.6292086 -77.27053943 256.6292086 -73.96875 257.20703125 C-72.69281982 257.45098633 -71.41688965 257.69494141 -70.10229492 257.94628906 C-68.69470395 258.20359929 -67.28690112 258.45975288 -65.87890625 258.71484375 C-65.16634674 258.84612671 -64.45378723 258.97740967 -63.71963501 259.1126709 C-38.97128131 263.65304605 -14.05982041 266.38145774 11.05859375 267.83984375 C11.98816895 267.89769043 12.91774414 267.95553711 13.87548828 268.01513672 C47.53862478 270.05294469 81.44107353 269.26373436 115.05859375 266.83984375 C115.73821167 266.79128235 116.41782959 266.74272095 117.11804199 266.69268799 C141.85393082 264.8971831 168.02765537 262.31798262 192.05859375 255.83984375 C192.38859375 255.17984375 192.71859375 254.51984375 193.05859375 253.83984375 C103.14061364 235.92267411 8.94539819 234.87715471 -80.94140625 253.83984375 Z M-171.94140625 246.83984375 C-167.4478112 266.95300236 -160.73504994 285.69337075 -150.94140625 303.83984375 C-150.02101563 305.57234375 -150.02101563 305.57234375 -149.08203125 307.33984375 C-135.05350281 332.8462591 -115.15895064 356.24883519 -91.94140625 373.83984375 C-91.41321289 374.24976563 -90.88501953 374.6596875 -90.34082031 375.08203125 C-74.17386899 387.60794425 -56.65166281 397.6327007 -37.94140625 405.83984375 C-37.29929199 406.12553223 -36.65717773 406.4112207 -35.99560547 406.70556641 C-18.78475583 414.28528489 -0.40972994 418.62141589 18.05859375 421.83984375 C19.85876953 422.16275391 19.85876953 422.16275391 21.6953125 422.4921875 C84.57880798 432.31549295 148.46761065 414.10088976 199.5625 377.33984375 C208.32265737 370.80465886 216.20930238 363.42610385 224.05859375 355.83984375 C224.58791504 355.33243652 225.11723633 354.8250293 225.66259766 354.30224609 C232.01418749 348.19724014 237.78599455 341.89717189 243.05859375 334.83984375 C243.83847656 333.8034375 244.61835938 332.76703125 245.421875 331.69921875 C251.99515051 322.81491524 257.70916383 313.50485587 263.05859375 303.83984375 C263.41163574 303.20385254 263.76467773 302.56786133 264.12841797 301.91259766 C273.52054592 284.733411 280.32614547 266.05020693 284.05859375 246.83984375 C280.12476652 248.26039247 276.58207276 250.15360922 272.93164062 252.16503906 C261.99836332 258.15359548 250.8226689 262.7556005 239.05859375 266.83984375 C237.91583984 267.24130615 237.91583984 267.24130615 236.75 267.65087891 C198.62510035 280.87566286 158.08130333 286.25544755 118.05859375 289.83984375 C116.77210938 289.9584375 115.485625 290.07703125 114.16015625 290.19921875 C74.52761862 293.68887615 33.67074621 293.49146502 -5.94140625 289.83984375 C-6.64668457 289.77667969 -7.35196289 289.71351563 -8.07861328 289.6484375 C-127.9298939 278.90369514 -127.9298939 278.90369514 -168.11010742 248.18164062 C-169.83191237 246.64283288 -169.83191237 246.64283288 -171.94140625 246.83984375 Z " fill="#000000" transform="translate(199.94140625,33.16015625)"/>
</svg>
