<?xml version="1.0" encoding="UTF-8"?>
<svg version="1.1" xmlns="http://www.w3.org/2000/svg" width="512" height="512">
<path d="M0 0 C0.98226563 0.69609375 1.96453125 1.3921875 2.9765625 2.109375 C10.49224842 7.58592133 17.27621235 13.60351773 24 20 C25.18916016 21.07507813 25.18916016 21.07507813 26.40234375 22.171875 C38.15522036 33.1605048 47.90225886 48.59316146 49.23828125 64.91015625 C49.59650686 80.12531783 44.03582883 90.79445766 33.75 101.6875 C15.78679245 118.92246941 -7.81536716 124.15686598 -31.86303711 124.14044189 C-33.38059057 124.14302841 -34.89814334 124.14604237 -36.41569519 124.1494453 C-40.57391475 124.15748496 -44.73211702 124.15930317 -48.89034343 124.16004276 C-53.37998969 124.16189864 -57.86962708 124.16944868 -62.35926819 124.17617798 C-72.17153807 124.18974058 -81.98380385 124.19578288 -91.79608154 124.20018864 C-97.92777594 124.20295475 -104.05946877 124.20719279 -110.19116211 124.21169281 C-127.18175151 124.22388311 -144.17233967 124.23418268 -161.16293335 124.2375679 C-162.24967594 124.23778747 -163.33641853 124.23800703 -164.45609272 124.23823325 C-166.0900182 124.23856067 -166.0900182 124.23856067 -167.75695229 124.2388947 C-169.96410751 124.23933816 -172.17126274 124.23978472 -174.37841797 124.24023438 C-175.47323384 124.2404558 -176.56804971 124.24067723 -177.69604182 124.24090537 C-195.42565852 124.24485121 -213.15523407 124.26229977 -230.88483489 124.2855939 C-249.10548699 124.30933913 -267.32611848 124.32177121 -285.54678631 124.32293582 C-295.7697289 124.32385083 -305.99261788 124.32955926 -316.21554565 124.34775543 C-324.92262897 124.36319932 -333.62964208 124.36825169 -342.3367365 124.36001733 C-346.77416106 124.35612588 -351.21144445 124.35696631 -355.64885139 124.37107468 C-359.72161544 124.38390452 -363.79413355 124.38253743 -367.8668977 124.37048396 C-369.32992384 124.36854255 -370.79296795 124.37153223 -372.25596893 124.38032833 C-391.98180993 124.49129208 -412.4223376 120.8800027 -428 108 C-428.85207031 107.32066406 -429.70414062 106.64132812 -430.58203125 105.94140625 C-441.26385736 96.95714171 -447.8798596 85.73043589 -449.34375 71.70703125 C-449.92283248 51.51152969 -439.88399914 35.4921278 -426.5 21.25390625 C-412.68067878 6.84079956 -397.2529348 -4.06498039 -380 -14 C-379.33484375 -14.38752441 -378.6696875 -14.77504883 -377.984375 -15.17431641 C-335.08805467 -39.91476915 -283.06564341 -52.32969207 -234 -56 C-232.88020752 -56.08459473 -232.88020752 -56.08459473 -231.73779297 -56.17089844 C-153.43891533 -61.77908251 -64.93062884 -46.19714209 0 0 Z M-218 -40 C-218.82136504 -37.00235701 -219.63042488 -34.00151902 -220.4375 -31 C-220.66759766 -30.16082031 -220.89769531 -29.32164062 -221.13476562 -28.45703125 C-223.34401081 -20.19637534 -224.18037814 -12.29622836 -224.1875 -3.75 C-224.19974609 -2.96109375 -224.21199219 -2.1721875 -224.22460938 -1.359375 C-224.31806626 4.13983364 -224.31806626 4.13983364 -222 9 C-218.48746854 11.34168764 -217.13530644 11.49623677 -213 11 C-209.35101 8.76316041 -209.35101 8.76316041 -207.37426758 5.12207031 C-206.99597587 2.97718347 -206.8583069 0.97361168 -206.82421875 -1.203125 C-206.45658414 -15.27426964 -204.44667605 -27.92797748 -199 -41 C-200.66656881 -41.02757191 -202.33327851 -41.04664803 -204 -41.0625 C-204.928125 -41.07410156 -205.85625 -41.08570313 -206.8125 -41.09765625 C-210.59988147 -40.98162128 -214.24628683 -40.51370859 -218 -40 Z M-181.7578125 -38.453125 C-187.82162084 -28.68173098 -190.95303282 -18.45850972 -191.23852539 -7.0065918 C-191.7772709 12.15887961 -191.7772709 12.15887961 -197.8671875 19.140625 C-204.3192704 25.13010573 -209.91136123 26.54493269 -218.640625 26.3671875 C-224.89352117 25.68373141 -229.74556751 23.58569604 -233.9140625 18.8046875 C-242.39242546 6.62959756 -240.05069734 -11.08781449 -237.5625 -25.0625 C-237.06632055 -27.71414485 -236.53658953 -30.35597593 -236 -33 C-235.65834082 -34.99859454 -235.32167936 -36.99809253 -235 -39 C-244.88030266 -38.70550514 -254.54435979 -37.62378913 -264.3125 -36.125 C-265.41585693 -35.96354492 -266.51921387 -35.80208984 -267.65600586 -35.63574219 C-268.69378174 -35.46977539 -269.73155762 -35.30380859 -270.80078125 -35.1328125 C-272.19550659 -34.91455811 -272.19550659 -34.91455811 -273.6184082 -34.69189453 C-277.18078037 -33.65696242 -278.48273795 -31.90520859 -280.28125 -28.7578125 C-285.07246496 -18.40755967 -287.05566248 -8.64292153 -287.4375 2.6875 C-287.76471965 11.49905771 -288.52218958 19.07833673 -295.25 25.4375 C-300.82474378 29.62448841 -306.6428944 31.63364945 -313.63671875 31.34375 C-319.7325605 30.45708211 -325.17231222 28.35218006 -329.4375 23.8125 C-335.43224925 15.50237914 -335.39379404 6.88722001 -335.1875 -3.0625 C-335.17396484 -4.30966797 -335.16042969 -5.55683594 -335.14648438 -6.84179688 C-335.1113902 -9.89498967 -335.06222267 -12.9472599 -335 -16 C-342.33328121 -14.03923493 -349.04984103 -11.36952973 -355.875 -8.0625 C-356.86878662 -7.58232422 -357.86257324 -7.10214844 -358.88647461 -6.60742188 C-386.36156546 6.90183803 -418.76827758 27.32935479 -431.16796875 56.7734375 C-434.30494855 66.34638054 -433.43105156 74.01272592 -429 83 C-421.61706946 94.66979343 -409.99570628 102.38640104 -396.70104939 105.86258376 C-387.52268133 107.79267225 -378.75614156 108.42851514 -369.35765076 108.38095093 C-367.84087748 108.38441718 -366.32410674 108.38918818 -364.80734116 108.39513266 C-360.68381224 108.40753941 -356.56049432 108.40151997 -352.43696511 108.39217401 C-347.97269275 108.3853411 -343.5084548 108.39588557 -339.04418945 108.40411377 C-330.31651019 108.41740802 -321.5889086 108.41459275 -312.86122637 108.40587585 C-305.76453918 108.39908311 -298.66787367 108.39818943 -291.57118416 108.4014473 C-290.55870105 108.401907 -289.54621795 108.40236669 -288.50305353 108.40284032 C-286.44581778 108.40379956 -284.38858203 108.4047722 -282.33134628 108.4057581 C-263.07056139 108.41429926 -243.80981943 108.40449766 -224.54904158 108.388357 C-208.04317095 108.37495295 -191.53736363 108.37728511 -175.03149414 108.39111328 C-155.83507832 108.40718813 -136.63870006 108.41347754 -117.44227844 108.40427649 C-115.39318566 108.4033209 -113.34409287 108.40237779 -111.29500008 108.4014473 C-110.28696639 108.40098447 -109.27893271 108.40052164 -108.24035255 108.40004479 C-101.156441 108.39746077 -94.07255339 108.40181316 -86.98864555 108.40888596 C-78.34973601 108.41732225 -69.71090819 108.41497608 -61.07200795 108.39904372 C-56.66921927 108.39118992 -52.26656657 108.38801981 -47.86377907 108.39799118 C-43.82531069 108.40699876 -39.78710302 108.40190662 -35.74865795 108.38605852 C-34.29597575 108.3827362 -32.84327105 108.38434656 -31.39060359 108.39168589 C-11.12614623 108.48613096 8.31029879 103.31515864 23.375 89.125 C29.50218164 82.65811835 33.44085437 75.36863616 33.2734375 66.328125 C31.10010434 47.82374554 14.69420098 32.16846939 1 21 C-8.16688757 13.87913875 -17.90649062 7.71147292 -28 2 C-28.68594238 1.60844727 -29.37188477 1.21689453 -30.07861328 0.81347656 C-40.08510805 -4.84266555 -50.36551075 -9.57831747 -61 -13.9375 C-62.12116211 -14.39817871 -63.24232422 -14.85885742 -64.39746094 -15.33349609 C-71.166169 -18.04680575 -77.91718547 -20.26212003 -85 -22 C-86.61680884 -16.25641698 -87.31546701 -11.01067694 -87.5 -5.0625 C-88.2806014 12.22702797 -88.2806014 12.22702797 -94 19 C-100.82022881 24.97822525 -105.77180326 26.45351849 -114.828125 26.33203125 C-120.96440002 25.68968719 -125.83299089 23.48036481 -129.91796875 18.8046875 C-139.02096425 5.70156334 -135.67520098 -13.50374675 -133.06738281 -28.41040039 C-132.72523643 -30.27615471 -132.36490256 -32.13856253 -132 -34 C-141.61590397 -36.2710929 -151.24619282 -37.60030698 -161.0625 -38.6875 C-162.23981689 -38.81874268 -163.41713379 -38.94998535 -164.63012695 -39.08520508 C-173.69251778 -40.80726481 -173.69251778 -40.80726481 -181.7578125 -38.453125 Z M-116 -31 C-119.57275182 -22.06812044 -120.18638544 -12.97871959 -120.25 -3.4375 C-120.25918457 -2.6638208 -120.26836914 -1.8901416 -120.27783203 -1.09301758 C-120.27914554 4.28667281 -120.27914554 4.28667281 -118 9 C-114.48746854 11.34168764 -113.13530644 11.49623677 -109 11 C-106.16300658 9.80286603 -106.16300658 9.80286603 -104 7 C-103.11609267 3.15445942 -102.97661122 -0.69108766 -102.8125 -4.625 C-102.4007344 -12.28289353 -101.6828487 -19.50682185 -100 -27 C-105.28 -28.32 -110.56 -29.64 -116 -31 Z M-309.1875 -25.5 C-310.31188477 -25.14228516 -310.31188477 -25.14228516 -311.45898438 -24.77734375 C-313.30721657 -24.18873477 -315.15377393 -23.59487146 -317 -23 C-321.59091943 -4.81953596 -321.59091943 -4.81953596 -318.375 12.75 C-315.46688828 15.50505321 -313.99581592 16.08154726 -310 16 C-306.47093933 14.39588152 -305.17227092 13.25840638 -303 10 C-302.76904219 7.0647893 -302.63164545 4.18896959 -302.5625 1.25 C-302.19210578 -8.84420702 -300.50049078 -18.21442549 -298 -28 C-301.98899083 -28 -305.43198706 -26.71357187 -309.1875 -25.5 Z " fill="#000000" transform="translate(456,283)"/>
<path d="M0 0 C1.9375 1.0625 1.9375 1.0625 3 3 C3.74870337 8.33451154 3.06063536 11.27882855 0.5 16 C-2.08054729 20.84964921 -3.05813704 23.53295861 -2 29 C-0.45216175 31.19887885 1.25816602 33.07381309 3.1171875 35.015625 C9.23916961 41.46783851 11.54911597 48.1288568 12 57 C11.35656937 68.50132257 6.2127315 80.09513208 -1 89 C-4.05693322 90.52846661 -6.62984547 90.23242445 -10 90 C-12.375 88.9375 -12.375 88.9375 -14 87 C-15.43024984 81.68291381 -14.88555676 78.81755653 -12.29296875 74.19921875 C-11.90753906 73.55597656 -11.52210938 72.91273438 -11.125 72.25 C-7.01410597 65.10727036 -7.01410597 65.10727036 -5.8125 57.0625 C-5.79832031 56.20785156 -5.78414062 55.35320312 -5.76953125 54.47265625 C-6.01758514 51.81133226 -6.57906861 50.2489914 -8 48 C-8.763125 47.4225 -9.52625 46.845 -10.3125 46.25 C-14.68915901 42.58582036 -18.00151238 37.69240882 -19 32 C-19.84167417 21.16861934 -18.99664682 11.48032324 -11.875 2.875 C-7.99075671 -1.33125309 -5.64173969 -1.18773467 0 0 Z " fill="#000000" transform="translate(247,106)"/>
<path d="M0 0 C2.875 1.5 2.875 1.5 5 4 C6.10523742 10.41037704 4.1407833 14.02332185 1.125 19.609375 C-0.43858029 22.93198312 -0.56569871 25.39367074 0 29 C1.54375204 32.54154879 3.94752773 35.08822863 6.5 37.9375 C12.55136901 44.81869809 14.15575417 50.87725575 14 60 C12.63821012 70.95226751 7.49713375 83.76613339 -1 91 C-5.03211364 91.63664952 -7.01737304 91.69818231 -10.375 89.3125 C-12.31847045 86.54679206 -12.85938683 85.39739567 -13 82 C-11.78517671 78.82268068 -10.15841912 75.8748214 -8.5625 72.875 C-3.51367218 62.92111124 -3.51367218 62.92111124 -4 52 C-5.82368592 48.89297954 -7.83474645 47.14872819 -10.5 44.75 C-16.5604804 38.08347156 -17.6590749 31.38583435 -17.390625 22.5078125 C-16.54275411 14.8939319 -13.76478382 7.99440545 -9 2 C-5.48746854 -0.34168764 -4.13530644 -0.49623677 0 0 Z " fill="#000000" transform="translate(178,116)"/>
<path d="M0 0 C2.66216366 2.23278243 2.95175924 3.69849528 3.5 7.125 C3.01650012 10.87212408 2.25691877 12.68819852 0.5 15.9375 C-2.05826216 20.71970597 -2.73049268 23.61261651 -2 29 C-0.60037162 32.16758002 0.98610346 33.98610346 3.4375 36.4375 C10.15287007 43.15287007 11.34539947 49.06976704 11.38500977 58.17626953 C11.15920949 69.79338874 5.93666929 79.84429544 -1 89 C-4.05693322 90.52846661 -6.62984547 90.23242445 -10 90 C-12.375 88.9375 -12.375 88.9375 -14 87 C-15.42621796 81.69129982 -14.89439997 78.84950317 -12.29296875 74.24804688 C-11.90753906 73.60931641 -11.52210938 72.97058594 -11.125 72.3125 C-7.30801336 65.74024826 -4.4228968 59.75729625 -6 52 C-7.51058617 49.73199316 -9.20156992 47.9232303 -11.11328125 45.984375 C-17.99352599 38.74800993 -19.46696097 31.71332131 -19.27734375 21.9375 C-18.66192079 13.20022752 -15.52505013 5.92847412 -9 0 C-5.8168485 -1.59157575 -3.38676935 -0.77242108 0 0 Z " fill="#000000" transform="translate(314,114)"/>
</svg>
