<?xml version="1.0" encoding="UTF-8"?>
<svg version="1.1" xmlns="http://www.w3.org/2000/svg" width="512" height="512">
<path d="M0 0 C8.80945932 2.3191569 15.58868215 16.22860553 20.0625 23.54296875 C23.9675164 30.43185857 27.39020358 37.54595915 30.125 44.98046875 C34.84203185 56.86186279 44.43003864 62.75981213 54.55273438 69.78857422 C92.90628508 96.59875081 92.90628508 96.59875081 98.0625 119.54296875 C98.87668651 132.77016274 97.04979283 143.20952836 92.0625 155.54296875 C92.619375 155.92066406 93.17625 156.29835938 93.75 156.6875 C105.66226236 165.27962167 112.08439469 176.51623327 114.4375 190.85546875 C116.11993917 205.74205107 111.9967676 217.78167444 103.0625 229.54296875 C98.13351716 235.59893008 92.15065745 239.33390244 85.0625 242.54296875 C84.4025 242.54296875 83.7425 242.54296875 83.0625 242.54296875 C82.79373047 243.83227295 82.52496094 245.12157715 82.24804688 246.44995117 C81.14315072 251.4127199 79.67805827 256.20339411 78.09375 261.03125 C77.81277466 261.89687057 77.53179932 262.76249115 77.24230957 263.65434265 C76.6526575 265.4675678 76.0609572 267.28012807 75.46728516 269.09204102 C74.559835 271.86360828 73.66033364 274.6376665 72.76171875 277.41210938 C72.18536415 279.18114223 71.60855716 280.95002777 71.03125 282.71875 C70.76348755 283.54482254 70.4957251 284.37089508 70.21984863 285.22200012 C69.9661853 285.99347885 69.71252197 286.76495758 69.45117188 287.55981445 C69.2307019 288.23438187 69.01023193 288.90894928 68.78308105 289.60395813 C66.78477394 294.98120013 66.78477394 294.98120013 64.375 296.85546875 C60.95509577 297.87219704 58.49140226 297.41578024 55.0625 296.54296875 C53.125 294.91796875 53.125 294.91796875 52.0625 292.54296875 C51.58026941 286.50110171 52.99694122 281.74158571 54.90625 276.109375 C55.19479858 275.23143784 55.48334717 274.35350067 55.78063965 273.44895935 C56.69825787 270.66448675 57.63012319 267.88502988 58.5625 265.10546875 C59.18975114 263.21060036 59.81606337 261.31542089 60.44140625 259.41992188 C61.96920507 254.78992147 63.51620437 250.16698742 65.0625 245.54296875 C51.8625 245.54296875 38.6625 245.54296875 25.0625 245.54296875 C25.0625 251.81296875 25.0625 258.08296875 25.0625 264.54296875 C23.92231207 275.71681048 19.84286071 282.95423453 11.13671875 290.1015625 C5.67893044 293.89426285 0.61591655 294.95255728 -5.9375 294.54296875 C-5.97089478 295.12317276 -6.00428955 295.70337677 -6.03869629 296.30116272 C-6.72463113 305.65937616 -8.52914108 314.7735021 -10.28125 323.9765625 C-10.61414456 325.74479992 -10.94661612 327.51311702 -11.27868652 329.2815094 C-11.97158936 332.96585415 -12.66777519 336.64955647 -13.36669922 340.33276367 C-14.26216526 345.05177464 -15.15208296 349.7718092 -16.03990936 354.49226284 C-16.88943895 359.00819324 -17.74138861 363.52366586 -18.59375 368.0390625 C-18.7556633 368.89756742 -18.9175766 369.75607235 -19.08439636 370.64059258 C-19.542576 373.06720624 -20.00243967 375.49349416 -20.46289062 377.91967773 C-20.59798538 378.63607422 -20.73308014 379.3524707 -20.87226868 380.09057617 C-21.4766638 383.2659969 -22.10139698 386.4195634 -22.9375 389.54296875 C0.05795763 389.5606117 0.05795763 389.5606117 19.3125 378.48046875 C28.18916649 366.69637707 31.32025289 349.67621009 35.70214844 335.83886719 C36.6828965 332.7485139 37.67298359 329.66127157 38.6640625 326.57421875 C38.96100006 325.6263147 39.25793762 324.67841064 39.56387329 323.70178223 C39.84781952 322.81986206 40.13176575 321.93794189 40.42431641 321.02929688 C40.66904694 320.25718872 40.91377747 319.48508057 41.16592407 318.6895752 C42.1817849 316.2573736 43.28883209 314.49465133 45.0625 312.54296875 C48.49140226 311.67015726 50.95509577 311.21374046 54.375 312.23046875 C56.5717909 313.9390839 57.28036595 314.84105111 58.0625 317.54296875 C57.58720535 324.47840075 55.63141343 330.72455779 53.4921875 337.3125 C52.95321335 338.98767952 52.95321335 338.98767952 52.40335083 340.69670105 C51.64223618 343.05206567 50.87717114 345.40615698 50.10839844 347.7590332 C48.94631574 351.32839105 47.80863389 354.90493133 46.671875 358.48242188 C45.92596745 360.78043153 45.17861747 363.07797359 44.4296875 365.375 C44.0970993 366.43056595 43.76451111 367.4861319 43.42184448 368.57368469 C38.84910886 382.35489442 31.33253604 392.61502928 18.98046875 400.18359375 C11.46628758 403.68417614 4.3347298 404.98761615 -3.90487671 404.9306488 C-4.85642187 404.93603434 -5.80796703 404.94141988 -6.78834689 404.94696862 C-9.94936485 404.96117743 -13.10995985 404.95416195 -16.27099609 404.94702148 C-18.54854161 404.95272876 -20.82608426 404.9596944 -23.10362244 404.96781921 C-29.2710361 404.98572654 -35.43830729 404.98458669 -41.60573912 404.97887683 C-46.76217627 404.97578135 -51.9185862 404.98188147 -57.07501948 404.98791558 C-69.93869254 405.00275297 -82.80226586 404.99915408 -95.66593499 404.98705227 C-106.81524774 404.97712311 -117.96439446 404.99005865 -129.1136816 405.01398646 C-140.58596718 405.03842031 -152.05814627 405.0475758 -163.53046286 405.04133373 C-169.96160802 405.03796857 -176.39261604 405.04035007 -182.82374191 405.05758476 C-188.8731392 405.07308963 -194.92222034 405.06905873 -200.9716053 405.05027962 C-203.18545154 405.04660352 -205.3993214 405.04967345 -207.61314583 405.06016541 C-224.9020689 405.13581588 -238.4595062 403.5098571 -251.625 391.29296875 C-259.20387383 383.13637244 -262.66171256 373.45908442 -265.9921875 363.01171875 C-266.45486523 361.59182656 -266.91861763 360.17228418 -267.38336182 358.75306702 C-268.61898009 354.96933499 -269.83932291 351.1808427 -271.0565567 347.39116287 C-272.32556672 343.44922454 -273.6087753 339.51191133 -274.89013672 335.57397461 C-277.68991537 326.95949789 -280.46859624 318.33831441 -283.23965454 309.71456146 C-283.90900698 307.63163485 -284.57881119 305.54885414 -285.2487793 303.46612549 C-288.81007459 292.39385066 -292.36348547 281.31912465 -295.88290405 270.23345947 C-296.72217353 267.59635762 -297.56868922 264.96167028 -298.41601562 262.32714844 C-299.41047535 259.22844929 -300.36537811 256.12203728 -301.28710938 253.00097656 C-301.60674149 251.95561989 -301.60674149 251.95561989 -301.93283081 250.8891449 C-302.49154815 249.06166247 -303.03296592 247.2289148 -303.57275391 245.39575195 C-305.66233314 241.02782113 -308.78350122 239.77346688 -313.0859375 237.91796875 C-322.66099076 233.30095677 -328.66214008 223.4406619 -332.1875 213.79296875 C-336.37227857 200.25197793 -335.2834526 187.369594 -329.5546875 174.4375 C-325.53380017 167.24069442 -319.42463676 161.53307395 -312.9375 156.54296875 C-313.9083347 153.58673337 -314.89557728 150.65251863 -316.0078125 147.74609375 C-320.80833781 134.30462287 -320.80949935 119.67269001 -314.9375 106.54296875 C-310.77357134 98.55244237 -304.71653002 88.96471667 -295.9375 85.54296875 C-292.58544489 85.7193927 -289.96358699 85.98027588 -287 87.60546875 C-285.23296152 90.82771539 -285.20307925 94.03022045 -285.9375 97.54296875 C-288.0625 100.10546875 -288.0625 100.10546875 -290.9375 102.54296875 C-298.32623497 109.66091238 -302.17338479 118.33398367 -302.5 128.60546875 C-302.10106632 138.38473498 -299.05966984 147.59665496 -291.9375 154.54296875 C-284.13301762 160.50832839 -276.9042542 163.59739226 -267.0234375 164.1171875 C-266.34848236 164.1539006 -265.67352722 164.19061371 -264.9781189 164.22843933 C-258.75178268 164.54762245 -252.52009237 164.73635716 -246.2890625 164.9375 C-245.25787292 164.97173065 -244.22668335 165.0059613 -243.16424561 165.04122925 C-242.11746643 165.07596344 -241.07068726 165.11069763 -239.9921875 165.14648438 C-238.93354492 165.18169189 -237.87490234 165.21689941 -236.78417969 165.25317383 C-234.64013429 165.32125166 -232.49591619 165.38409589 -230.3515625 165.44165039 C-212.30219909 165.93673913 -195.39108288 167.48213564 -178.9375 175.54296875 C-177.62652344 176.16945313 -177.62652344 176.16945313 -176.2890625 176.80859375 C-170.6786961 179.67136135 -165.79442191 183.10856894 -160.8125 186.91796875 C-149.84443979 195.22368675 -137.54991038 201.13589618 -123.9375 203.54296875 C-123.23625 203.671875 -122.535 203.80078125 -121.8125 203.93359375 C-99.66075928 207.32781209 -77.50892369 199.74911689 -59.6875 186.79296875 C-53.71188414 182.51658015 -48.32308528 180.89511039 -40.9375 181.54296875 C-34.3143961 183.01180228 -29.50069646 186.61177258 -24.9375 191.54296875 C-21.39705609 197.25336216 -20.8158054 202.45271721 -20.7956543 209.07397461 C-20.78861984 210.37560043 -20.78158539 211.67722626 -20.77433777 213.01829529 C-20.77252188 213.70894011 -20.77070599 214.39958492 -20.76883507 215.11115837 C-20.76162855 217.28502215 -20.74593248 219.45866553 -20.72749329 221.63246155 C-20.67521088 227.81052691 -20.62704658 233.98846602 -20.61157227 240.16674805 C-20.60147024 243.95288971 -20.57209733 247.73846712 -20.53025246 251.52438545 C-20.51797601 252.96237476 -20.51281507 254.40044383 -20.51505089 255.83848381 C-20.51741335 257.85323955 -20.49299154 259.86797214 -20.4675293 261.88256836 C-20.45872993 263.59868568 -20.45872993 263.59868568 -20.44975281 265.34947205 C-19.68202132 270.13567907 -17.39348817 273.29497889 -13.75 276.41796875 C-9.73630044 278.02344857 -6.20054489 278.21964254 -1.9375 277.54296875 C2.5693935 275.289522 4.88648918 273.04705473 7.0625 268.54296875 C7.51956409 265.040316 7.51956409 265.040316 7.46313477 261.1574707 C7.47011383 260.43153214 7.4770929 259.70559357 7.48428345 258.95765686 C7.50422364 256.56540219 7.50375994 254.17358033 7.50390625 251.78125 C7.51568785 250.10840198 7.52905399 248.43556445 7.54393005 246.76274109 C7.58010096 242.35910857 7.60030522 237.95556877 7.61547852 233.55181885 C7.64030241 226.52204139 7.6803492 219.49246926 7.73737907 212.46288109 C7.7535651 210.02023263 7.75747352 207.57778125 7.76039124 205.13508606 C7.81612154 193.02762548 7.9389219 182.0405772 16.69921875 172.8203125 C24.93996722 165.2832684 33.18055928 164.96682958 43.90625 164.45898438 C54.30217432 163.80594091 64.57668867 161.2182943 72.0625 153.54296875 C79.78402109 143.44089966 82.35808055 134.22602044 81.0625 121.54296875 C77.41317016 107.3869637 67.64509994 99.89174435 56.16357422 92.00732422 C49.71781432 87.51491568 43.43768753 82.78310888 37.14013672 78.08642578 C35.40581312 76.79801288 33.65942046 75.52586648 31.91015625 74.2578125 C21.51805124 66.45973062 16.4290126 56.62280651 11.34741211 44.96020508 C6.78322028 34.49473654 1.43100247 25.55321002 -6.01953125 16.8203125 C-8.58033112 13.77968862 -9.87445575 12.12087435 -10.3125 8.10546875 C-9.9375 4.54296875 -9.9375 4.54296875 -8.4375 2.10546875 C-5.59909742 0.33146714 -3.35773097 -0.22837508 0 0 Z M-301.9375 168.54296875 C-311.09576993 176.06519823 -317.05486636 182.72830058 -318.77734375 194.71875 C-319.29664365 203.87616038 -316.48036159 211.32493121 -310.9375 218.54296875 C-305.43803544 224.70331317 -298.59857716 228.75503365 -290.3404758 229.90443468 C-287.55776689 230.04267164 -284.80213078 230.05755597 -282.01620483 230.02398682 C-280.43530436 230.02911337 -280.43530436 230.02911337 -278.82246649 230.03434348 C-275.3154435 230.04089558 -271.80919775 230.01898973 -268.30224609 229.99707031 C-265.77863584 229.99594126 -263.25502428 229.99657682 -260.73141479 229.99884033 C-255.31085825 229.99974916 -249.89054889 229.98845537 -244.47004318 229.96588898 C-236.63310532 229.93328396 -228.79626042 229.92295331 -220.95926209 229.91793701 C-208.2421569 229.90919763 -195.52515476 229.88261906 -182.80810547 229.84472656 C-170.45980339 229.80797123 -158.11152938 229.77967675 -145.76318359 229.76269531 C-145.00113996 229.76164442 -144.23909633 229.76059352 -143.45396046 229.75951079 C-139.63074474 229.75429037 -135.80752882 229.7492356 -131.98431277 229.74426317 C-100.30196629 229.70284344 -68.61974921 229.63213336 -36.9375 229.54296875 C-36.85020953 225.48060473 -36.79701008 221.41848286 -36.75 217.35546875 C-36.72486328 216.20498047 -36.69972656 215.05449219 -36.67382812 213.86914062 C-36.66416016 212.75732422 -36.65449219 211.64550781 -36.64453125 210.5 C-36.6288208 209.4788208 -36.61311035 208.4576416 -36.59692383 207.40551758 C-36.99545066 204.05589244 -37.93920773 202.2398011 -39.9375 199.54296875 C-42.73774411 197.2443688 -42.73774411 197.2443688 -45.8203125 197.6953125 C-49.27226702 198.63400189 -51.05529528 199.85477927 -53.8125 202.10546875 C-73.91389468 217.222151 -98.91803608 222.85340517 -123.75 219.85546875 C-140.88952121 217.10327542 -156.64743336 210.57168735 -170.4375 200.04296875 C-191.15730479 184.2617603 -212.45137808 181.93246052 -237.8828125 181.1484375 C-240.05338663 181.07881386 -242.22395953 181.00915182 -244.39453125 180.93945312 C-247.73571706 180.83217185 -251.07664608 180.73010548 -254.41845703 180.64428711 C-270.15045909 180.23089312 -283.38572508 179.68906691 -296.9140625 170.8125 C-299.00625884 169.38875737 -299.00625884 169.38875737 -301.9375 168.54296875 Z M75.0625 171.29296875 C68.09524013 176.11645636 59.52449916 179.49216569 50.98046875 179.7890625 C49.82901367 179.83836914 49.82901367 179.83836914 48.65429688 179.88867188 C47.06327916 179.94941747 45.47212758 180.00676122 43.88085938 180.06054688 C34.90156929 180.4509232 34.90156929 180.4509232 27.390625 185.02954102 C24.1596482 189.10529722 24.42471811 193.08161067 24.57421875 198.09765625 C24.58129349 198.99920441 24.58836823 199.90075256 24.59565735 200.82962036 C24.62352108 203.69326735 24.686243 206.55491845 24.75 209.41796875 C24.77509331 211.36585707 24.79790467 213.3137762 24.81835938 215.26171875 C24.87332132 220.02289785 24.95953705 224.78259558 25.0625 229.54296875 C31.71519765 229.64500293 38.36769097 229.71469859 45.02099609 229.76269531 C47.28083843 229.78271964 49.54062955 229.80994737 51.80029297 229.84472656 C55.06230362 229.89364953 58.32362487 229.91603007 61.5859375 229.93359375 C63.08343033 229.96456146 63.08343033 229.96456146 64.61117554 229.99615479 C74.8671743 229.99938167 82.68814089 226.83155444 90.0859375 219.734375 C96.17314252 212.98551726 98.60163485 205.58301599 99.0625 196.54296875 C98.2745784 185.39950615 93.32469505 177.77026873 85.0625 170.54296875 C80.62683763 167.5858605 79.05063548 168.33119166 75.0625 171.29296875 Z M-285.9375 245.54296875 C-284.565435 252.21473016 -282.73861001 258.58069616 -280.5859375 265.0390625 C-280.25468369 266.04544266 -279.92342987 267.05182281 -279.58213806 268.08869934 C-278.4959324 271.38717968 -277.40414025 274.68378348 -276.3125 277.98046875 C-274.76939444 282.66055833 -273.22987688 287.34182245 -271.69140625 292.0234375 C-271.29823715 293.21905304 -270.90506805 294.41466858 -270.49998474 295.64651489 C-267.7814487 303.92880959 -265.10766956 312.22450441 -262.46484375 320.53125 C-262.10763245 321.65337387 -261.75042114 322.77549774 -261.38238525 323.93162537 C-260.00428561 328.2643266 -258.62742097 332.59739179 -257.25872803 336.93307495 C-250.16091026 365.13355908 -250.16091026 365.13355908 -231.73046875 385.7734375 C-223.80985529 389.51110348 -216.12144131 389.68615899 -207.5 389.60546875 C-206.11651367 389.59870117 -206.11651367 389.59870117 -204.70507812 389.59179688 C-202.44914584 389.58010811 -200.19337051 389.56282957 -197.9375 389.54296875 C-198.65638828 382.01830429 -199.93738732 374.66315346 -201.33007812 367.23632812 C-201.57517386 365.9164927 -201.81999341 364.59660596 -202.06455994 363.27667236 C-202.72469209 359.71882233 -203.38894136 356.16175301 -204.05418968 352.60485649 C-204.60974723 349.63230195 -205.16324334 346.65936511 -205.71674204 343.68642664 C-207.02126841 336.6797222 -208.32912051 329.67364432 -209.63916016 322.66796875 C-210.99150147 315.43579567 -212.33856582 308.20265389 -213.68302011 300.96901083 C-214.83857409 294.7526194 -215.99716202 288.53679891 -217.15825796 282.32144022 C-217.85134636 278.61122808 -218.54331035 274.90081531 -219.23243713 271.18986511 C-219.99881641 267.06388766 -220.77153429 262.93912265 -221.54492188 258.81445312 C-221.88782509 256.9615567 -221.88782509 256.9615567 -222.23765564 255.07122803 C-222.55308067 253.39743073 -222.55308067 253.39743073 -222.87487793 251.68981934 C-223.05701591 250.71426842 -223.2391539 249.7387175 -223.42681122 248.73360443 C-223.72592148 246.57851291 -223.72592148 246.57851291 -224.9375 245.54296875 C-226.83993762 245.44905579 -228.74588459 245.42553217 -230.65063477 245.42944336 C-232.48242027 245.42955666 -232.48242027 245.42955666 -234.35121155 245.42967224 C-235.69377686 245.43477964 -237.03634175 245.43999564 -238.37890625 245.4453125 C-239.74511158 245.44717676 -241.11131757 245.44860062 -242.4775238 245.44960022 C-246.07951695 245.45342481 -249.68147 245.46325458 -253.28344727 245.4743042 C-256.95653745 245.48451959 -260.62963409 245.48909811 -264.30273438 245.49414062 C-271.51434123 245.50487691 -278.725915 245.52195261 -285.9375 245.54296875 Z M-207.9375 245.54296875 C-207.09087021 253.17542712 -207.09087021 253.17542712 -205.87487793 260.70568848 C-205.66459457 261.84411194 -205.45431122 262.9825354 -205.23765564 264.15545654 C-205.0090535 265.37452698 -204.78045135 266.59359741 -204.54492188 267.84960938 C-204.29982614 269.1694448 -204.05500659 270.48933154 -203.81044006 271.80926514 C-203.15030791 275.36711517 -202.48605864 278.92418449 -201.82081032 282.48108101 C-201.26525277 285.45363555 -200.71175666 288.42657239 -200.15825796 291.39951086 C-198.85373159 298.4062153 -197.54587949 305.41229318 -196.23583984 312.41796875 C-194.88349853 319.65014183 -193.53643418 326.88328361 -192.19197989 334.11692667 C-191.03642591 340.3333181 -189.87783798 346.54913859 -188.71674204 352.76449728 C-188.02365364 356.47470942 -187.33168965 360.18512219 -186.64256287 363.89607239 C-185.87618359 368.02204984 -185.10346571 372.14681485 -184.33007812 376.27148438 C-184.10147598 377.50674866 -183.87287384 378.74201294 -183.63734436 380.01470947 C-183.427061 381.13057434 -183.21677765 382.24643921 -183.00012207 383.39611816 C-182.72691509 384.85944454 -182.72691509 384.85944454 -182.44818878 386.35233307 C-182.14907852 388.50742459 -182.14907852 388.50742459 -180.9375 389.54296875 C-178.48919574 389.63140668 -176.06929401 389.65825627 -173.62109375 389.640625 C-172.89003922 389.63921005 -172.15898468 389.6377951 -171.40577698 389.63633728 C-169.06214368 389.63072283 -166.71860461 389.61816797 -164.375 389.60546875 C-162.78971492 389.60045561 -161.20442834 389.59589238 -159.61914062 389.59179688 C-155.72522699 389.58159804 -151.83137678 389.56263842 -147.9375 389.54296875 C-148.64263969 373.92794176 -149.65916247 358.34234035 -150.75 342.75 C-150.92565301 340.22182507 -151.10118787 337.69364192 -151.27661133 335.16545105 C-151.6881889 329.24101287 -152.10173823 323.31671462 -152.51603794 317.39246625 C-152.89237089 312.00810363 -153.26589401 306.62354892 -153.63872623 301.23894292 C-154.04548321 295.36551784 -154.45434914 289.49224095 -154.86410522 283.61902428 C-155.03687592 281.13964282 -155.20910422 278.6602235 -155.38076782 276.18076515 C-155.62052751 272.72169948 -155.86268664 269.26280975 -156.10546875 265.80395508 C-156.20992813 264.28662025 -156.20992813 264.28662025 -156.3164978 262.7386322 C-156.38374054 261.78753571 -156.45098328 260.83643921 -156.52026367 259.85652161 C-156.57703781 259.04274457 -156.63381195 258.22896753 -156.69230652 257.39053059 C-157.0329695 253.43423087 -157.49898312 249.4896207 -157.9375 245.54296875 C-174.4375 245.54296875 -190.9375 245.54296875 -207.9375 245.54296875 Z M-141.9375 245.54296875 C-141.1677845 263.0268647 -141.1677845 263.0268647 -140.10546875 280.48608398 C-140.02890045 281.59971313 -139.95233215 282.71334229 -139.8734436 283.86071777 C-139.62656393 287.44118517 -139.37594723 291.02137808 -139.125 294.6015625 C-138.94930678 297.13166743 -138.77377277 299.66178342 -138.59838867 302.19190979 C-138.18736824 308.11162044 -137.77367607 314.03114014 -137.35896206 319.95059305 C-136.98185939 325.33732754 -136.60860227 330.72432327 -136.23627377 336.11138958 C-135.83014441 341.98593752 -135.42113226 347.86028215 -135.01089478 353.73454475 C-134.83791719 356.21556486 -134.66568793 358.69663725 -134.49423218 361.17776299 C-134.25514035 364.63227748 -134.01276984 368.08654683 -133.76953125 371.54077148 C-133.69989166 372.5563765 -133.63025208 373.57198151 -133.5585022 374.61836243 C-133.49125946 375.56381927 -133.42401672 376.50927612 -133.35473633 377.48338318 C-133.29796219 378.29640616 -133.24118805 379.10942915 -133.18269348 379.9470892 C-132.87938457 383.15824068 -132.39364669 386.34994192 -131.9375 389.54296875 C-117.7475 389.54296875 -103.5575 389.54296875 -88.9375 389.54296875 C-87.30645919 372.64420725 -87.30645919 372.64420725 -85.97607422 355.72924805 C-85.8977536 354.61737122 -85.81943298 353.50549438 -85.73873901 352.35992432 C-85.48723435 348.77919178 -85.23953935 345.1982091 -84.9921875 341.6171875 C-84.81583743 339.08802742 -84.63933091 336.55887825 -84.462677 334.02973938 C-84.04975028 328.10794355 -83.63956488 322.18596224 -83.23040116 316.26390535 C-82.8579731 310.87797319 -82.48150962 305.49232884 -82.10407627 300.10674542 C-81.69255881 294.23307415 -81.28416699 288.35918856 -80.87707901 282.48520851 C-80.70486251 280.00490445 -80.53182525 277.52465724 -80.35793686 275.04446983 C-80.11598907 271.58801289 -79.87760089 268.13132803 -79.64013672 264.67456055 C-79.53264099 263.15418938 -79.53264099 263.15418938 -79.42297363 261.60310364 C-79.35855072 260.65482697 -79.29412781 259.70655029 -79.22775269 258.72953796 C-79.17135557 257.91613795 -79.11495846 257.10273794 -79.05685234 256.26468945 C-78.90027087 252.69399266 -78.9375 249.11709708 -78.9375 245.54296875 C-99.7275 245.54296875 -120.5175 245.54296875 -141.9375 245.54296875 Z M-62.9375 245.54296875 C-65.19046091 273.28457369 -67.21864337 301.03924929 -69.15454102 328.8046875 C-69.5520172 334.50461209 -69.9530129 340.20428341 -70.35487652 345.90390015 C-70.66775663 350.34755231 -70.97869104 354.79133897 -71.28904152 359.23516846 C-71.4363233 361.34031628 -71.58424057 363.44541975 -71.73282433 365.55047607 C-71.93806662 368.46190011 -72.14064584 371.37349764 -72.3425293 374.28515625 C-72.40327133 375.13895874 -72.46401337 375.99276123 -72.52659607 376.87243652 C-72.58115967 377.66718384 -72.63572327 378.46193115 -72.69194031 379.28076172 C-72.73966426 379.96331024 -72.78738821 380.64585876 -72.83655834 381.34909058 C-72.96210349 384.07770387 -72.9375 386.81146878 -72.9375 389.54296875 C-62.0475 389.54296875 -51.1575 389.54296875 -39.9375 389.54296875 C-38.23376875 384.47267562 -38.23376875 384.47267562 -37.05160522 379.38018799 C-36.90581528 378.6091423 -36.76002533 377.83809662 -36.6098175 377.04368591 C-36.4580455 376.21748245 -36.3062735 375.39127899 -36.14990234 374.54003906 C-35.98379959 373.65480057 -35.81769684 372.76956207 -35.64656067 371.85749817 C-35.10138932 368.94611758 -34.56230781 366.03364662 -34.0234375 363.12109375 C-33.64547094 361.09415839 -33.26718056 359.0672834 -32.88858032 357.04046631 C-32.09758664 352.80105918 -31.30941163 348.56114133 -30.5234375 344.32080078 C-29.51428363 338.87679665 -28.49980613 333.43380206 -27.48344994 327.99113846 C-26.70301932 323.8102596 -25.9245265 319.62902195 -25.14671707 315.44765472 C-24.77311867 313.43964943 -24.39911358 311.43171976 -24.02470016 309.42386627 C-23.50338893 306.62569003 -22.98447966 303.82707952 -22.46630859 301.02832031 C-22.2325779 299.77686974 -22.2325779 299.77686974 -21.99412537 298.50013733 C-21.22021621 294.54803877 -21.22021621 294.54803877 -20.9375 290.54296875 C-22.36273153 289.62674848 -23.78818937 288.71087816 -25.21484375 287.796875 C-30.84605313 283.69796749 -34.27806888 278.29691285 -35.9375 271.54296875 C-36.41951093 267.04420008 -36.53736971 262.56457813 -36.625 258.04296875 C-36.7796875 251.85546875 -36.7796875 251.85546875 -36.9375 245.54296875 C-45.5175 245.54296875 -54.0975 245.54296875 -62.9375 245.54296875 Z " fill="#000000" transform="translate(365.9375,107.45703125)"/>
<path d="M0 0 C3.75 0.75 3.75 0.75 6.25 2.3125 C8.47659173 5.93071157 8.5660297 7.53384656 7.75 11.75 C5.86079369 14.54401466 3.80841669 17.06720265 1.59765625 19.61328125 C-0.28321721 21.61080675 -0.28321721 21.61080675 -1.25 23.75 C-0.51394531 24.01683594 0.22210938 24.28367187 0.98046875 24.55859375 C12.69640307 29.59859371 20.70885157 40.30126061 25.5625 51.68359375 C28.44991533 59.13958399 29.01384797 65.77592812 28.75 73.75 C29.28947266 73.92233154 29.82894531 74.09466309 30.38476562 74.2722168 C56.74910836 82.8553632 56.74910836 82.8553632 65.75 90.75 C67.19430855 93.63861709 67.12688506 95.54647701 66.75 98.75 C64.4772083 101.82495348 63.05428216 103.5265813 59.21875 104.18359375 C54.07798101 103.54099763 49.96297912 101.2605683 45.375 98.9375 C39.24500674 95.88556443 33.21314276 93.02799294 26.75 90.75 C26.39808594 91.43964844 26.04617188 92.12929687 25.68359375 92.83984375 C18.03177932 107.40426338 8.01293689 118.20439403 -7.8828125 123.65234375 C-22.82139029 127.97457226 -37.40657541 126.49802815 -51.125 119.375 C-63.00116858 112.56242349 -70.45694729 103.05974673 -76.25 90.75 C-111.30684898 105.02575527 -133.68415281 124.00270915 -149.25 158.75 C-154.52441026 170.39712388 -160.68627923 178.06906556 -170.8125 185.8125 C-171.75017212 186.54738647 -171.75017212 186.54738647 -172.70678711 187.29711914 C-176.9721539 190.42348684 -179.80183732 191.39174677 -185.25 190.75 C-187.625 189.6875 -187.625 189.6875 -189.25 187.75 C-190.09846659 184.4167384 -190.71078683 181.97213103 -189.47558594 178.69604492 C-188.11280125 176.53214915 -186.8693735 175.48736119 -184.765625 174.05078125 C-184.08048828 173.56923584 -183.39535156 173.08769043 -182.68945312 172.59155273 C-181.96693359 172.08696533 -181.24441406 171.58237793 -180.5 171.0625 C-170.03324394 163.40459965 -166.21645396 155.88295266 -161.41992188 144.05273438 C-158.20975765 136.29129762 -154.14239565 129.55416659 -149.25 122.75 C-148.63769531 121.89535156 -148.02539062 121.04070312 -147.39453125 120.16015625 C-130.12693774 97.44351404 -106.86758543 83.16962809 -80.25 73.75 C-79.59 73.75 -78.93 73.75 -78.25 73.75 C-78.29640625 73.10675781 -78.3428125 72.46351562 -78.390625 71.80078125 C-78.94018793 58.04208073 -73.89938092 45.97099615 -65.0625 35.625 C-53.77032003 23.64563145 -40.60095436 18.42328305 -24.33203125 17.79296875 C-22.30483391 17.76470618 -20.27739434 17.75 -18.25 17.75 C-16.83113906 16.01850074 -16.83113906 16.01850074 -15.5625 13.75 C-6.97866518 0.3761734 -6.97866518 0.3761734 0 0 Z M-51.5078125 44.82421875 C-60.13361758 53.94338168 -62.86485111 63.41874402 -62.58984375 75.78515625 C-61.66852025 86.53393046 -56.2458799 94.55830123 -48.26953125 101.46484375 C-39.42949314 108.45822013 -30.42358337 110.56207739 -19.25 109.75 C-9.0231997 107.9515463 0.45310167 102.03621696 6.75 93.75 C12.3563363 83.39425445 14.59685539 73.26664171 12.06640625 61.59765625 C9.00177536 52.53092668 3.5721401 45.28007114 -4.25 39.75 C-6.99547874 38.37949404 -6.99547874 38.37949404 -9.25 37.75 C-10.25675012 40.77025037 -10.41708541 42.95419378 -10.49609375 46.1171875 C-10.52896484 47.16777344 -10.56183594 48.21835937 -10.59570312 49.30078125 C-10.65668258 51.50901583 -10.71400091 53.71735468 -10.76757812 55.92578125 C-10.80173828 56.97894531 -10.83589844 58.03210938 -10.87109375 59.1171875 C-10.90867798 60.55747314 -10.90867798 60.55747314 -10.94702148 62.02685547 C-11.27121637 64.94069089 -11.94454729 67.129834 -13.25 69.75 C-16.29983996 71.27491998 -18.8923369 70.98562548 -22.25 70.75 C-23.95214844 69.63818359 -23.95214844 69.63818359 -25.25 67.75 C-25.60644531 64.82666016 -25.60644531 64.82666016 -25.578125 61.2890625 C-25.57296875 60.01289062 -25.5678125 58.73671875 -25.5625 57.421875 C-25.5521875 56.75736328 -25.541875 56.09285156 -25.53125 55.40820312 C-25.50021723 53.38913323 -25.49028798 51.37084685 -25.484375 49.3515625 C-25.39806738 38.64941781 -25.39806738 38.64941781 -24.25 33.75 C-34.49043407 33.75 -44.04581687 37.96899439 -51.5078125 44.82421875 Z " fill="#000000" transform="translate(280.25,-0.75)"/>
<path d="M0 0 C0.70769531 -0.01224609 1.41539062 -0.02449219 2.14453125 -0.03710938 C6.23775878 -0.04854297 9.51670243 0.18362995 13.125 2.1875 C15.60538907 5.9080836 15.58837203 7.78546571 15.125 12.1875 C13.7890625 14.375 13.7890625 14.375 11.125 16.1875 C7.45181466 16.81383013 3.84336053 16.79083471 0.125 16.75 C-0.87273437 16.77384766 -1.87046875 16.79769531 -2.8984375 16.82226562 C-10.15198048 16.80768075 -10.15198048 16.80768075 -13.56640625 13.87890625 C-15.35172148 10.2070191 -14.95487526 8.07505093 -13.875 4.1875 C-10.41186278 -0.53495984 -5.36572427 0.00483399 0 0 Z " fill="#000000" transform="translate(293.875,227.8125)"/>
<path d="M0 0 C2.5625 2.0625 2.5625 2.0625 5 5 C6.24095503 6.23829774 7.49137332 7.46716825 8.75 8.6875 C11.78551819 11.66362762 12.90766787 13.00281295 13.3125 17.375 C13 21 13 21 11.5 23.4375 C8.75538772 25.15288268 6.55975331 25.92612444 3.29296875 25.78515625 C-3.30787855 23.52490019 -8.95634046 16.07740488 -12 10 C-11.88214109 6.58209158 -11.58916681 4.07436301 -9.9375 1.0625 C-6.71274924 -0.7059117 -3.51538299 -0.7280379 0 0 Z " fill="#000000" transform="translate(303,171)"/>
<path d="M0 0 C4.75534313 3.19159148 8.95565621 6.95565621 13 11 C13.30078125 13.05859375 13.30078125 13.05859375 13.3125 15.4375 C13.32925781 16.21996094 13.34601563 17.00242188 13.36328125 17.80859375 C12.91026659 20.54129508 12.22226625 21.37970203 10 23 C6.84382033 24.02575839 4.19195715 23.83723466 1 23 C-4.0879888 19.78229957 -9.93860202 15.90854188 -12 10 C-11.82357605 6.64794489 -11.56269287 4.02608699 -9.9375 1.0625 C-6.50423646 -0.82025743 -3.67849401 -1.0664038 0 0 Z " fill="#000000" transform="translate(188,167)"/>
<path d="M0 0 C1.17369141 -0.02513672 1.17369141 -0.02513672 2.37109375 -0.05078125 C5.10296297 0.40209547 5.94879464 1.08548606 7.5625 3.3125 C8.81253751 7.66045656 8.07721414 11.29513532 6.0625 15.27734375 C3.79110646 18.87844892 1.57933619 22.29566381 -1.4375 25.3125 C-8.3648743 25.98289106 -8.3648743 25.98289106 -11.9375 23.75 C-13.46831914 21.2624189 -14.18270332 19.46405765 -14.03515625 16.51953125 C-12.19219678 9.71383123 -7.71039109 0.03798222 0 0 Z " fill="#000000" transform="translate(255.4375,160.6875)"/>
<path d="M0 0 C2.875 2.125 2.875 2.125 5 5 C5.61704543 10.064028 4.29548163 12.95195988 1.6875 17.25 C0.76517578 18.80460937 0.76517578 18.80460937 -0.17578125 20.390625 C-2 23 -2 23 -5 25 C-7.875 25.4375 -7.875 25.4375 -11 25 C-13.875 22.875 -13.875 22.875 -16 20 C-16.50961245 15.2762846 -15.55937718 12.41107286 -13.25 8.3125 C-12.73953125 7.38050781 -12.2290625 6.44851562 -11.703125 5.48828125 C-8.52363925 0.8430234 -5.68251365 -0.92775733 0 0 Z " fill="#000000" transform="translate(364,198)"/>
<path d="M0 0 C2.703125 1.5234375 2.703125 1.5234375 5.25 3.375 C6.10078125 3.98085937 6.9515625 4.58671875 7.828125 5.2109375 C10.70160062 7.5779372 11.90001852 9.21681172 12.375 12.9375 C12 16 12 16 10.3125 18.3125 C7.66321922 20.24575895 6.25683959 20.72549495 3 21 C0.02734375 19.9609375 0.02734375 19.9609375 -3.0625 18.375 C-4.08472656 17.86710937 -5.10695312 17.35921875 -6.16015625 16.8359375 C-9.22483205 14.85464778 -11.02384197 13.05924465 -13 10 C-12.93822484 6.41704089 -12.76840164 4.04782042 -10.625 1.125 C-6.92225714 -1.43843737 -4.19436498 -1.03294063 0 0 Z " fill="#000000" transform="translate(153,213)"/>
<path d="M0 0 C2.4375 1.5 2.4375 1.5 4 4 C4.96953826 8.68610157 4.86447792 10.67165587 2.23828125 14.70703125 C-0.05597898 17.58618368 -2.39484576 20.39484576 -5 23 C-12.07246377 23.57971014 -12.07246377 23.57971014 -15.5 21.4375 C-17.03060339 18.9502695 -17.80554896 17.09645329 -17.6640625 14.14453125 C-16.11298592 9.13546631 -12.38022858 4.92323718 -9 1 C-5.90826248 -0.54586876 -3.40570448 -0.29359521 0 0 Z " fill="#000000" transform="translate(230,215)"/>
<path d="M0 0 C3.51151749 2.73577725 4.85934857 4.18841505 5.62890625 8.62890625 C5.60699219 9.92699219 5.58507812 11.22507813 5.5625 12.5625 C5.56378906 13.86316406 5.56507813 15.16382813 5.56640625 16.50390625 C4.9270424 20.45032451 4.15001028 21.63458637 1 24 C-2.01505326 25.08232681 -3.57900315 25.10769687 -6.6875 24.3125 C-9.46948743 22.73353416 -9.88751076 21.9633563 -11 19 C-11.70122216 12.80710115 -12.26070127 7.00229025 -8.875 1.625 C-5.44553149 -0.31339525 -3.86752888 -0.80573518 0 0 Z " fill="#000000" transform="translate(325,131)"/>
</svg>
