<?xml version="1.0" encoding="UTF-8"?>
<svg version="1.1" xmlns="http://www.w3.org/2000/svg" width="512" height="512">
<path d="M0 0 C1.51570133 1.29433602 3.01591505 2.60703086 4.5 3.9375 C5.33789062 4.66839844 6.17578125 5.39929688 7.0390625 6.15234375 C9.55989476 8.37996742 12.03750562 10.64567355 14.5 12.9375 C15.17804688 13.56140625 15.85609375 14.1853125 16.5546875 14.828125 C27.55823208 25.34556921 38.26243454 39.534195 43.5 53.9375 C44.74394531 54.040625 45.98789062 54.14375 47.26953125 54.25 C95.58234103 59.67988848 145.0638369 92.0555022 175.04199219 129.40185547 C177.23996712 132.21430975 179.38590826 135.06158148 181.5 137.9375 C182.14453125 138.81019531 182.7890625 139.68289062 183.453125 140.58203125 C185.18907357 143.00219379 186.85866411 145.45226971 188.5 147.9375 C189.0878125 148.82695312 189.675625 149.71640625 190.28125 150.6328125 C211.82097165 184.44311329 241.72513569 243.69164664 234.5 284.9375 C228.5973341 296.15813377 212.4433283 299.73329787 201.0625 303.3046875 C185.16815417 308.08305096 168.96111663 310.97486773 152.5 312.9375 C151.76434311 313.02596191 151.02868622 313.11442383 150.27073669 313.20556641 C143.62597659 313.93951202 137.04491033 314.11330079 130.36328125 314.140625 C129.21817078 314.14763931 128.0730603 314.15465363 126.89324951 314.16188049 C123.19962617 314.17935156 119.5061632 314.18573686 115.8125 314.1875 C114.55057831 314.18817474 113.28865662 314.18884949 111.98849487 314.18954468 C92.94737934 314.17335415 74.37565378 313.58561713 55.5 310.9375 C53.55476675 310.68280821 51.60953332 310.42811784 49.66429138 310.17349243 C0.50651502 303.65662938 -48.30597512 291.29678658 -94.9765625 274.60546875 C-95.73799057 274.33330536 -96.49941864 274.06114197 -97.28392029 273.7807312 C-100.86080345 272.49640368 -104.42921781 271.19325596 -107.98754883 269.85839844 C-119.83790575 265.47244502 -132.14112897 262.31589584 -144.875 262.5 C-145.6589917 262.50757324 -146.4429834 262.51514648 -147.25073242 262.52294922 C-170.50790674 263.16038703 -189.88054767 273.30650601 -207.5 287.9375 C-208.34691406 288.59878906 -208.34691406 288.59878906 -209.2109375 289.2734375 C-219.74057325 297.57457891 -228.27717268 310.00169188 -235.8125 321 C-236.67294922 322.25490234 -236.67294922 322.25490234 -237.55078125 323.53515625 C-238.74993003 325.90521247 -238.74993003 325.90521247 -237.9375 328.37109375 C-225.91899563 349.82804312 -204.79049609 366.75449424 -181.19824219 373.60595703 C-172.79322242 375.80015711 -164.19639583 377.5803266 -155.5 377.9375 C-154.778125 377.97746094 -154.05625 378.01742188 -153.3125 378.05859375 C-136.74824026 378.53425661 -119.65222206 375.33012451 -104.125 369.6875 C-97.1940196 367.28831448 -90.74728852 366.37184304 -84 369.625 C-79.35145249 373.92490645 -77.88204202 378.3721029 -76.875 384.5 C-76.68997925 385.60722412 -76.68997925 385.60722412 -76.5012207 386.73681641 C-72.69790648 411.1259191 -73.04776815 438.81500729 -87.5 459.9375 C-90.31032198 463.47913253 -93.31271235 466.73372638 -96.5 469.9375 C-97.10328125 470.57558594 -97.7065625 471.21367187 -98.328125 471.87109375 C-109.33442688 482.61420146 -126.61074871 487.62144029 -141.65478516 487.55297852 C-148.9081341 487.19938856 -152.95210918 484.31557041 -158.5 479.9375 C-159.96429898 478.87793599 -161.43348367 477.82510648 -162.90625 476.77734375 C-172.33711793 470.02781968 -181.37771847 462.94964671 -190.03759766 455.23681641 C-191.33112991 454.08753783 -192.63914307 452.95460303 -193.94921875 451.82421875 C-206.40994614 440.92901569 -218.45316917 429.11160912 -228.5 415.9375 C-229.4867349 414.70058775 -230.47515054 413.46501524 -231.46484375 412.23046875 C-260.8740144 375.16959081 -278.02159227 332.24888977 -277.8125 284.75 C-277.81067719 283.8899939 -277.80885437 283.02998779 -277.80697632 282.1439209 C-277.7619597 269.52929588 -277.376002 257.27204128 -274.5 244.9375 C-274.32839355 244.17244141 -274.15678711 243.40738281 -273.97998047 242.61914062 C-265.30705989 204.76521381 -247.31949832 170.87588166 -221.5 141.9375 C-221.05833496 141.43943848 -220.61666992 140.94137695 -220.16162109 140.42822266 C-210.54665617 129.62674508 -200.58480552 119.09059183 -189.2265625 110.10546875 C-186.35914207 107.82549978 -183.59195879 105.44863915 -180.8125 103.0625 C-157.07059455 83.29285673 -118.92681101 56.9375 -86.5 56.9375 C-98.08004746 37.92498655 -113.76660195 25.71116676 -135.265625 19.546875 C-136.10786621 19.30018066 -136.95010742 19.05348633 -137.81787109 18.79931641 C-139.48096968 18.32010774 -141.15058111 17.86277358 -142.82666016 17.43115234 C-148.81934626 15.71629156 -152.01955572 13.10278508 -155.5 7.9375 C-157.22922412 4.47905176 -156.85136443 0.72584735 -156.5 -3.0625 C-154.77745683 -7.86748883 -152.63557496 -10.16310233 -148.5 -13.0625 C-145.88293552 -14.17839118 -143.38287194 -15.13167815 -140.6875 -16 C-139.92066895 -16.25160889 -139.15383789 -16.50321777 -138.36376953 -16.76245117 C-92.98297187 -31.03537162 -38.88569362 -30.45338252 0 0 Z M-89.5 5.9375 C-86.3628941 9.17917609 -83.09337799 12.16519232 -79.6875 15.125 C-68.58429939 25.10965595 -60.99447684 37.60291385 -54.5 50.9375 C-53.4891333 50.87691406 -52.4782666 50.81632812 -51.43676758 50.75390625 C-14.42845532 48.55468601 -14.42845532 48.55468601 3.5 48.9375 C-3.36904202 32.65246779 -24.03039992 19.44974536 -39.79443359 12.99853516 C-55.45952199 7.07800039 -72.75783987 3.05316412 -89.5 5.9375 Z M-99.5 91.9375 C-100.2228418 92.16518066 -100.94568359 92.39286133 -101.69042969 92.62744141 C-140.76792412 105.25938347 -178.28018431 137.17461225 -203.5 168.9375 C-204.29535156 169.91589844 -205.09070313 170.89429688 -205.91015625 171.90234375 C-229.99210684 202.16698213 -247.93144152 242.57285828 -246.5 281.9375 C-244.00705054 279.45788182 -241.5300586 276.96887825 -239.09765625 274.4296875 C-228.4854694 263.4741171 -216.80738982 254.44587121 -203.5 246.9375 C-201.90478516 246.02871094 -201.90478516 246.02871094 -200.27734375 245.1015625 C-173.78752557 230.91169499 -140.57150886 227.23671111 -111.68310547 235.76953125 C-104.22812273 238.10439293 -96.85647497 240.67884091 -89.48028564 243.24951172 C-54.63311075 255.35607222 -19.65684728 265.54347696 16.5 272.9375 C15.05646505 267.97821665 13.57069202 263.04732639 11.8515625 258.17578125 C-2.31151621 217.98271139 -6.77209845 173.57090449 11.56640625 133.8515625 C19.67199254 117.23341488 31.66367821 100.24545678 46.81640625 89.2578125 C47.37199219 88.82210937 47.92757813 88.38640625 48.5 87.9375 C48.5 87.2775 48.5 86.6175 48.5 85.9375 C-0.51023752 75.49684961 -51.49739758 76.67661458 -99.5 91.9375 Z M56.7734375 121.59375 C42.56918411 136.54559568 33.74582953 154.60562384 30.5 174.9375 C30.36980469 175.70964844 30.23960937 176.48179687 30.10546875 177.27734375 C25.77201003 208.30490819 35.76591122 240.75263138 48.6875 268.5625 C49.10346436 269.47 49.51942871 270.3775 49.94799805 271.3125 C50.35058838 272.15039062 50.75317871 272.98828125 51.16796875 273.8515625 C51.52141357 274.5935791 51.8748584 275.3355957 52.23901367 276.10009766 C54.25005843 279.03042154 56.4670087 279.71822242 59.86694336 280.43994141 C78.02899795 282.76861872 96.07981576 283.25953236 114.375 283.3125 C115.4873703 283.32017395 116.5997406 283.3278479 117.74581909 283.33575439 C146.95121144 283.49646427 174.8111422 279.25967992 202.5 269.9375 C194.25511755 230.82512087 182.48513483 192.56626376 158.5 159.9375 C158.07396484 159.35742188 157.64792969 158.77734375 157.20898438 158.1796875 C147.39964782 144.98431329 136.57304635 132.962617 123.5 122.9375 C122.5409375 122.15117187 121.581875 121.36484375 120.59375 120.5546875 C111.53881154 113.26043152 101.71578538 107.46672028 91.5 101.9375 C90.47628296 101.37289062 90.47628296 101.37289062 89.43188477 100.796875 C80.23256855 96.70467317 63.1882818 115.34433149 56.7734375 121.59375 Z M-199.5 400.9375 C-197.50396268 403.27432418 -195.50367433 405.60723558 -193.5 407.9375 C-192.65308594 408.9275 -192.65308594 408.9275 -191.7890625 409.9375 C-186.22344513 416.38454999 -180.35309412 422.33298215 -173.890625 427.8828125 C-172.09628661 429.4250053 -170.31757791 430.98541375 -168.546875 432.5546875 C-161.76975911 438.52873183 -154.78212651 444.23748386 -147.625 449.75 C-146.84084717 450.37914307 -146.05669434 451.00828613 -145.2487793 451.65649414 C-140.27107394 455.4295056 -140.27107394 455.4295056 -134.2421875 455.94921875 C-123.62690779 453.0793258 -116.56446904 447.86674748 -110.96484375 438.3203125 C-106.02468022 427.92148431 -104.43594089 415.25991118 -106.5 403.9375 C-107.21542969 404.05867188 -107.93085938 404.17984375 -108.66796875 404.3046875 C-110.79603599 404.6625772 -112.92503841 405.01492798 -115.0546875 405.36328125 C-117.16753812 405.71542302 -119.27782903 406.08400167 -121.3828125 406.48046875 C-145.46945491 410.75183334 -169.26284813 409.32073709 -192.64453125 402.45654297 C-194.90856758 401.82320859 -197.18545078 401.34622 -199.5 400.9375 Z " fill="#000000" transform="translate(277.5,25.0625)"/>
<path d="M0 0 C3.89653728 2.0604291 6.23419172 4.22264226 7.89453125 8.28125 C9.28940154 14.35889912 9.04528572 18.80696616 5.89453125 24.28125 C2.26061445 28.01338077 -1.75218773 30.22076998 -7.0546875 30.31640625 C-11.99031539 29.93095721 -15.24567771 28.51270296 -19.10546875 25.28125 C-22.43785905 20.62229666 -22.78197084 16.92267308 -22.6640625 11.3046875 C-21.75435628 6.38082309 -18.98611508 3.31430334 -15.10546875 0.28125 C-10.24121101 -1.34016925 -4.91117446 -1.67654193 0 0 Z " fill="#000000" transform="translate(407.10546875,193.71875)"/>
</svg>
