<?xml version="1.0" encoding="UTF-8"?>
<svg version="1.1" xmlns="http://www.w3.org/2000/svg" width="512" height="512">
<path d="M0 0 C3.45453986 0.0170906 6.90838534 0.00689365 10.36290169 -0.0103302 C65.07728365 -0.2404412 137.94618685 3.53727679 180.40332031 42.55908203 C186.42787091 48.89431573 189.64619967 56.10451828 192.14550781 64.39111328 C192.44585937 65.33212891 192.74621094 66.27314453 193.05566406 67.24267578 C201.29797743 96.9150039 191.4346422 132.48503099 176.82910156 158.62158203 C171.71135615 167.38699374 165.65904458 174.81650703 158.51367188 181.99951172 C157.30562092 183.22825733 156.1399284 184.49833971 154.98144531 185.77392578 C131.63353041 210.92476848 95.31166157 222.78803866 62.52050781 228.64111328 C61.67641357 228.79225586 60.83231934 228.94339844 59.96264648 229.09912109 C42.5426121 231.99076521 25.20245978 232.73962666 7.56640625 232.70678711 C4.04558032 232.70363572 0.5256053 232.72716014 -2.99511719 232.75244141 C-55.64774326 232.90022666 -111.09583573 221.10501163 -149.72949219 183.01611328 C-174.99068722 157.35939488 -187.0914583 122.47646824 -187.10546875 86.77783203 C-186.9325247 73.25675174 -184.24762327 58.32761742 -175.85449219 47.39111328 C-175.19449219 46.46298828 -174.53449219 45.53486328 -173.85449219 44.57861328 C-142.77042118 8.62595284 -77.00704484 3.96385158 -33.15930176 0.66870117 C-22.12399048 -0.09112016 -11.05592781 -0.05508189 0 0 Z M-160.48730469 54.90673828 C-164.0669838 58.79324703 -166.06264505 62.43973325 -166.47949219 67.76611328 C-166.17772627 74.08164288 -162.5178588 78.70899057 -158.19042969 83.06689453 C-155.41225095 85.6387498 -155.41225095 85.6387498 -151.85449219 86.39111328 C-151.82871094 85.81103516 -151.80292969 85.23095703 -151.77636719 84.63330078 C-151.24517439 77.31732728 -148.84247064 73.15002593 -143.60449219 68.01611328 C-96.22550515 28.41707061 -1.3409872 35.67131422 56.52197266 40.68359375 C134.82334639 48.03679909 134.82334639 48.03679909 156.14550781 72.70361328 C158.6321713 76.04506734 159.30057149 77.94175004 159.70800781 82.01611328 C159.79179687 82.83337891 159.87558594 83.65064453 159.96191406 84.49267578 C160.0225 85.11916016 160.08308594 85.74564453 160.14550781 86.39111328 C166.55819407 83.33679504 171.68742304 79.19181448 174.14550781 72.39111328 C175.23974433 67.24065517 174.51580282 63.34659559 171.83300781 58.82861328 C151.73827487 31.97347135 102.48205968 25.30755457 72.07666016 20.92285156 C5.08732931 11.86169378 -107.03375099 5.44225575 -160.48730469 54.90673828 Z M-140.85449219 76.39111328 C-143.56947567 80.4635885 -143.46887205 83.61533381 -142.85449219 88.39111328 C-140.99827541 92.98745958 -138.54693478 94.79539614 -134.22949219 96.89111328 C-132.11891863 97.76033634 -129.99171752 98.58965378 -127.85449219 99.39111328 C-127.23832031 99.6229834 -126.62214844 99.85485352 -125.98730469 100.09375 C-50.35453013 128.06367676 63.9117675 131.97810099 138.14550781 98.39111328 C143.07073084 95.20986105 148.1863961 91.53739453 151.14550781 86.39111328 C151.72575206 82.32940352 151.76993569 80.29463082 149.41503906 76.88720703 C126.25262144 51.41253429 72.46475666 49.87713674 41.14550781 47.39111328 C39.80262695 47.28307373 39.80262695 47.28307373 38.43261719 47.17285156 C-14.00938873 43.1964565 -99.57922432 39.0664782 -140.85449219 76.39111328 Z M-169.85449219 94.39111328 C-167.55942873 124.58306872 -156.32849161 154.2022963 -133.26464844 174.69189453 C-130.50797545 176.99234394 -127.70322102 179.20600878 -124.85449219 181.39111328 C-124.13261719 181.96345703 -123.41074219 182.53580078 -122.66699219 183.12548828 C-96.00267989 203.1237225 -61.56448371 211.55998312 -28.85449219 214.39111328 C-27.89067627 214.47723877 -26.92686035 214.56336426 -25.93383789 214.65209961 C-16.08935889 215.44968636 -6.28914115 215.59186235 3.58300781 215.57861328 C4.41833038 215.57800903 5.25365295 215.57740479 6.11428833 215.57678223 C52.03408629 215.48689708 102.02968145 208.18796669 138.14550781 177.39111328 C138.88671875 176.79943359 139.62792969 176.20775391 140.39160156 175.59814453 C162.73157945 157.26455644 174.79005563 127.62753806 177.68969727 99.52026367 C177.85201844 97.8115015 178.00045581 96.10142794 178.14550781 94.39111328 C176.66050781 95.59767578 176.66050781 95.59767578 175.14550781 96.82861328 C133.88248994 127.48732411 72.65764715 134.42741781 22.56347656 134.59423828 C21.88719019 134.59706566 21.21090382 134.59989304 20.51412392 134.60280609 C16.91753398 134.61768575 13.32098281 134.62697936 9.72436523 134.63134766 C6.83067859 134.63568012 3.93729893 134.64938182 1.04370117 134.67236328 C-56.18798997 135.11724972 -122.7530064 130.07405706 -169.85449219 94.39111328 Z " fill="#202020" transform="translate(251.8544921875,139.60888671875)"/>
<path d="M0 0 C1.70687988 -0.01401855 1.70687988 -0.01401855 3.44824219 -0.02832031 C5.02847168 -0.02203613 5.02847168 -0.02203613 6.640625 -0.015625 C7.57938477 -0.01336914 8.51814453 -0.01111328 9.48535156 -0.00878906 C11.75 0.25 11.75 0.25 13.75 2.25 C14.0625 4.75 14.0625 4.75 13.75 7.25 C10.53741808 9.39172128 9.64076551 9.50550158 5.9375 9.55859375 C4.46821045 9.59303589 4.46821045 9.59303589 2.96923828 9.62817383 C1.37571533 9.65754028 1.37571533 9.65754028 -0.25 9.6875 C-24.93303221 10.42723503 -50.35416678 12.37994873 -73.25 22.25 C-74.91508896 22.92059747 -76.58124907 23.58856781 -78.25 24.25 C-77.88268527 27.55583253 -77.59672541 28.92367021 -75.125 31.25 C-74.50625 31.91 -73.8875 32.57 -73.25 33.25 C-73.55 37.55 -73.55 37.55 -75.25 39.25 C-79.34549478 39.09248097 -81.73671514 38.60706773 -85.125 36.25 C-87.93021745 32.28969301 -88.65196561 29.07358729 -88.25 24.25 C-85.14933091 17.06208529 -78.53829773 13.68684314 -71.65625 10.6796875 C-49.09993228 1.82301569 -23.99984241 0.13865108 0 0 Z " fill="#202020" transform="translate(230.25,198.75)"/>
<path d="M0 0 C3.31716658 2.23715886 5.78257129 4.12636319 7 8 C7.61536462 11.55544003 7.65131612 13.89841711 5.78515625 17.0546875 C-7.3663907 33.45544016 -35.3503346 34.92824047 -54.63500977 37.32788086 C-62.80865948 38.19683268 -70.98052861 38.11275644 -79.1875 38.0625 C-80.63085781 38.05747088 -82.07421733 38.05291049 -83.51757812 38.04882812 C-87.01175505 38.0379438 -90.50586612 38.0207585 -94 38 C-95.125 32.25 -95.125 32.25 -94 30 C-89.35591422 28.81394824 -84.61996546 28.83689396 -79.85449219 28.70996094 C-39.40419004 28.21226038 -39.40419004 28.21226038 -3 13 C-3.41927628 10.06506604 -3.87924008 9.11010463 -6.125 7.0625 C-8 5 -8 5 -7.875 2.3125 C-6.27927409 -1.90477562 -3.82445216 -1.15622972 0 0 Z " fill="#202020" transform="translate(363,213)"/>
<path d="M0 0 C10.10260976 -0.19161957 20.12433275 -0.19857832 30.1875 0.8125 C31.3153894 0.91763916 31.3153894 0.91763916 32.46606445 1.02490234 C38.32561647 1.67589149 45.01949536 2.61383094 49.73120117 6.38598633 C51 8 51 8 51.4375 11.4375 C51 15 51 15 49.3125 17.375 C46.76594633 19.16447015 45.10305383 19.83668138 42 20 C41.34 19.34 40.68 18.68 40 18 C40.25 15.4375 40.25 15.4375 41 13 C41.66 12.67 42.32 12.34 43 12 C38.88781746 10.10633598 34.89708823 9.42046159 30.4375 8.9375 C29.71167725 8.85371094 28.98585449 8.76992187 28.23803711 8.68359375 C21.3176276 7.9340962 14.38228976 7.61558367 7.42553711 7.42944336 C1.2123818 7.2123818 1.2123818 7.2123818 -1 5 C-0.625 2.375 -0.625 2.375 0 0 Z " fill="#202020" transform="translate(265,214)"/>
<path d="M0 0 C0.6875 2.3125 0.6875 2.3125 1 5 C-0.48046875 6.66796875 -0.48046875 6.66796875 -2 8 C12.19178328 11.25998085 26.49729037 12.11347572 41 13 C41.625 15.375 41.625 15.375 42 18 C40 20 40 20 37.60839844 20.16699219 C36.6187207 20.12735352 35.62904297 20.08771484 34.609375 20.046875 C33.51351074 20.00578613 32.41764648 19.96469727 31.28857422 19.92236328 C30.12084473 19.8654834 28.95311523 19.80860352 27.75 19.75 C26.56809082 19.6969873 25.38618164 19.64397461 24.16845703 19.58935547 C-3.79072805 18.20927195 -3.79072805 18.20927195 -10 12 C-10.33954407 8.99260964 -10.56172736 6.90034738 -10 4 C-6.91722952 0.47683374 -4.64436785 -0.5307849 0 0 Z " fill="#212121" transform="translate(206,219)"/>
</svg>
