<?xml version="1.0" encoding="UTF-8"?>
<svg version="1.1" xmlns="http://www.w3.org/2000/svg" width="512" height="512">
<path d="M0 0 C8.09039366 5.75573679 14.90741188 12.45325331 21.85539246 19.49523926 C23.0945424 20.73999883 24.33436703 21.98408708 25.5748291 23.22753906 C28.8052679 26.4693191 32.02658676 29.72001042 35.24595642 32.97277832 C38.54575186 36.30350839 41.85427766 39.62554249 45.16203308 42.94836426 C51.62688545 49.44519106 58.08211663 55.95148562 64.53117371 62.46398926 C64.53703995 61.76321259 64.54290619 61.06243591 64.5489502 60.34042358 C64.60697634 53.71981161 64.67910929 47.09951886 64.76688862 40.47923088 C64.81151947 37.07606269 64.850791 33.67301219 64.87760925 30.26965332 C64.908716 26.35240358 64.96350263 22.4356535 65.01945496 18.51867676 C65.02584488 17.30283905 65.0322348 16.08700134 65.03881836 14.83432007 C65.22343891 4.19470968 65.22343891 4.19470968 68.53117371 -0.53601074 C73.43141794 -4.95818237 76.01168094 -5.6630673 82.56364441 -5.69714355 C83.28742279 -5.70210846 84.01120117 -5.70707336 84.75691223 -5.71218872 C87.15693607 -5.72682117 89.55689379 -5.73361462 91.95695496 -5.73913574 C93.6236369 -5.74488693 95.29031883 -5.75064467 96.95700073 -5.75640869 C100.45495411 -5.76692219 103.95288448 -5.77276236 107.45085144 -5.77624512 C111.92996229 -5.78172626 116.4087686 -5.80574454 120.887784 -5.83421707 C124.33220299 -5.85285594 127.77654887 -5.85804974 131.22101402 -5.85958099 C132.87201284 -5.86260596 134.52301041 -5.87062925 136.17395973 -5.88376617 C138.48638058 -5.90085082 140.79806078 -5.89894069 143.11051941 -5.89245605 C144.42575089 -5.89610168 145.74098236 -5.89974731 147.09606934 -5.90350342 C152.06693143 -5.37171305 154.52799729 -3.67851722 157.78117371 0.02648926 C160.51924141 3.84022642 160.59886125 5.52589063 160.28564453 10.18515015 C160.20857112 11.40527864 160.13149771 12.62540714 160.05208874 13.88250923 C160.00841337 14.54423393 159.96473799 15.20595864 159.91973913 15.88773561 C158.5657899 36.68496331 157.81181415 57.50446938 157.34367371 78.33898926 C157.32320874 79.23404521 157.30274377 80.12910116 157.28165865 81.05128002 C154.52922803 137.98736613 154.52922803 137.98736613 178.68692017 187.27542114 C189.38512654 198.36902805 202.11779359 207.58742952 215.358078 215.39416504 C221.1341573 218.89345571 224.51249681 222.44908988 227.53117371 228.46398926 C228.25433777 229.85037598 228.25433777 229.85037598 228.99211121 231.26477051 C233.27757459 243.04063784 233.62040979 258.07867537 228.92179871 269.79211426 C222.22733016 282.65452012 212.91029638 291.03955221 199.53117371 296.46398926 C192.32539638 298.69181095 183.79180852 299.88420086 176.53117371 297.46398926 C176.53486088 298.29721805 176.53854805 299.13044683 176.54234695 299.98892498 C176.63085878 320.30566537 176.69696137 340.62237232 176.73842239 360.93926525 C176.7590079 370.76455314 176.78705143 380.58971197 176.83293152 390.41491699 C176.8729225 398.98309031 176.89863565 407.55117011 176.90752769 416.11943418 C176.91272175 420.65219635 176.92484517 425.18469109 176.95409393 429.71736717 C176.98145728 433.99292756 176.98957694 438.26811303 176.98360443 442.54375267 C176.98469539 444.10410609 176.99252389 445.66447343 177.00799561 447.22475052 C177.17697923 465.16207841 172.32194039 478.98679819 160.01554871 492.13977051 C151.08088982 500.49845296 139.05797013 506.55962534 126.67362976 506.60443115 C125.24795937 506.61299637 125.24795937 506.61299637 123.79348755 506.62173462 C122.7626857 506.62285248 121.73188385 506.62397034 120.66984558 506.62512207 C119.57499344 506.63008698 118.4801413 506.63505188 117.35211182 506.64016724 C113.73470937 506.65475858 110.11735073 506.66158456 106.49992371 506.66711426 C103.98556009 506.6728666 101.47119648 506.67862433 98.95683289 506.68438721 C94.36078193 506.69354637 89.76474352 506.69985128 85.16868448 506.70288396 C78.41025623 506.70736872 71.65202981 506.7249434 64.89366293 506.75388455 C59.03157943 506.77811392 53.16956329 506.7858285 47.30743408 506.78755951 C44.81632384 506.79058924 42.32521452 506.7986285 39.83413696 506.81174469 C36.3534353 506.82876879 32.87322805 506.82693399 29.39250183 506.82043457 C27.84629906 506.83425674 27.84629906 506.83425674 26.26885986 506.84835815 C17.52347147 506.79711447 17.52347147 506.79711447 13.53117371 503.46398926 C9.96339323 499.40068372 8.40521857 497.11372951 8.41091919 491.7437439 C8.40885719 490.25031464 8.40885719 490.25031464 8.40675354 488.72671509 C8.41034882 487.63051849 8.41394409 486.5343219 8.41764832 485.40490723 C8.41750229 484.25369385 8.41735626 483.10248047 8.41720581 481.91638184 C8.41790466 478.09629457 8.42569581 474.27625555 8.43351746 470.45617676 C8.43538173 467.81344632 8.43680559 465.17071553 8.43780518 462.52798462 C8.44091622 456.27358303 8.44912657 450.01919887 8.45915467 443.76480496 C8.47141789 435.94708849 8.47690007 428.1293692 8.48234558 420.31164551 C8.4920921 406.36241317 8.51212316 392.41321888 8.53117371 378.46398926 C-13.24882629 378.46398926 -35.02882629 378.46398926 -57.46882629 378.46398926 C-57.42242004 386.91250488 -57.37601379 395.36102051 -57.32820129 404.06555176 C-57.30516586 410.09619516 -57.28466063 416.12680553 -57.26781082 422.15746498 C-57.24564378 429.97051335 -57.21749991 437.78339093 -57.16706848 445.59631348 C-57.12289312 452.44330914 -57.09969245 459.2901198 -57.08931732 466.13724899 C-57.08192293 468.75035894 -57.06748361 471.3634587 -57.04590607 473.97649002 C-57.01689653 477.63481816 -57.01286945 481.29238113 -57.01472473 484.95080566 C-57.00034363 486.03262115 -56.98596252 487.11443665 -56.97114563 488.22903442 C-57.00459553 494.31912169 -57.44204528 497.80586723 -61.46882629 502.46398926 C-61.98445129 503.06211426 -62.50007629 503.66023926 -63.03132629 504.27648926 C-65.80528805 506.56802289 -68.59913642 506.59312994 -72.0320282 506.61116028 C-72.96816452 506.61831558 -73.90430084 506.62547089 -74.86880493 506.63284302 C-75.89422897 506.63553192 -76.91965302 506.63822083 -77.97615051 506.64099121 C-79.59871513 506.65084801 -79.59871513 506.65084801 -81.25405884 506.66090393 C-84.84387786 506.68065604 -88.43365488 506.69230743 -92.02351379 506.70227051 C-93.25121616 506.70634604 -94.47891853 506.71042156 -95.74382401 506.71462059 C-101.57815635 506.73334209 -107.41247224 506.74790107 -113.24682891 506.75623256 C-119.28937017 506.76500579 -125.33165873 506.7842106 -131.37409973 506.82067871 C-137.86799583 506.85924127 -144.36166448 506.87793331 -150.85567093 506.88243675 C-153.32343417 506.88728831 -155.79119424 506.89886109 -158.25889206 506.91747475 C-179.43990493 507.06723543 -195.09195311 504.98909646 -211.14460754 489.94445801 C-217.77887759 482.86418661 -221.68950414 474.68356866 -224.46882629 465.46398926 C-224.6463314 464.89261356 -224.8238365 464.32123787 -225.00672054 463.73254776 C-225.62252447 460.70945783 -225.5914401 457.84284331 -225.58908081 454.75689697 C-225.58993524 454.08377669 -225.59078966 453.4106564 -225.59166998 452.71713853 C-225.59331623 450.46313195 -225.58781741 448.20919991 -225.58235168 445.9552002 C-225.5820696 444.33886721 -225.58222796 442.72253409 -225.58279419 441.10620117 C-225.58308134 436.71813702 -225.57719782 432.33010015 -225.57022023 427.94204235 C-225.56397309 423.35628078 -225.56338182 418.77051859 -225.56219482 414.18475342 C-225.55908553 405.50088541 -225.55087754 396.81702997 -225.54084533 388.13316751 C-225.52967174 378.24692841 -225.5241706 368.36068871 -225.5191499 358.47444487 C-225.50869461 338.13761931 -225.49110292 317.80080508 -225.46882629 297.46398926 C-226.45882629 297.79398926 -227.44882629 298.12398926 -228.46882629 298.46398926 C-240.83477221 299.68415849 -253.21528173 295.89876671 -263.10163879 288.49133301 C-268.98525105 283.51221637 -273.09492917 278.38047835 -276.46882629 271.46398926 C-276.88132629 270.68023926 -277.29382629 269.89648926 -277.71882629 269.08898926 C-282.398563 258.68957436 -282.13862785 244.74107849 -278.96882629 233.90148926 C-274.71651388 223.75383557 -267.19836178 215.7479628 -259.48104858 208.09526062 C-258.61076662 207.22029869 -257.74048467 206.34533676 -256.84383053 205.44386083 C-254.45608011 203.04630035 -252.06189734 200.65553163 -249.66457593 198.26756489 C-247.06946537 195.6792948 -244.48306757 193.08234137 -241.89549255 190.48654175 C-236.83722102 185.41498472 -231.77093905 180.3515051 -226.70166297 175.29095008 C-222.58027558 171.17635785 -218.46184999 167.05882249 -214.34548759 162.93920326 C-213.75801808 162.35127404 -213.17054856 161.76334483 -212.56527693 161.15759957 C-211.37161311 159.96297651 -210.17795599 158.76834675 -208.98430549 157.57371036 C-197.81231069 146.39317725 -186.63116784 135.2218292 -175.44683462 124.05364058 C-165.8612988 114.48151353 -156.2836653 104.90153871 -146.71174622 95.3157959 C-135.57842787 84.16640625 -124.44023773 73.02192075 -113.29427952 61.88516599 C-112.10484034 60.6966824 -110.91540739 59.50819257 -109.72598076 58.31969643 C-109.14085158 57.73503008 -108.55572241 57.15036373 -107.95286204 56.54798022 C-103.84000694 52.43770982 -99.73063173 48.32398015 -95.62260628 44.20888329 C-90.61427007 39.19211495 -85.60058625 34.18076467 -80.58006758 29.17618682 C-78.02126225 26.62524007 -75.46486636 24.07200112 -72.91497231 21.51214409 C-70.14597873 18.73249569 -67.3653714 15.96465106 -64.58358765 13.19779968 C-63.78648819 12.39400806 -62.98938873 11.59021644 -62.16813475 10.7620675 C-45.93223193 -5.30558902 -20.80072026 -12.94142478 0 0 Z M96.53117371 24.46398926 C95.65768019 35.64955898 94.90376766 46.76112724 94.53117371 57.96398926 C94.50392841 58.77988148 94.47668312 59.5957737 94.44861221 60.43638992 C93.50689751 86.96190367 93.50689751 86.96190367 105.73835754 109.68618774 C112.53728633 116.56586323 120.21877936 122.53056292 128.53117371 127.46398926 C128.86117371 127.46398926 129.19117371 127.46398926 129.53117371 127.46398926 C129.53117371 93.47398926 129.53117371 59.48398926 129.53117371 24.46398926 C118.64117371 24.46398926 107.75117371 24.46398926 96.53117371 24.46398926 Z M-45.26283264 37.87704468 C-46.12424291 38.73377498 -46.98565319 39.59050528 -47.8731668 40.4731971 C-50.25138055 42.84154264 -52.62272389 45.21640051 -54.99133635 47.5943253 C-57.55169006 50.16148163 -60.12067937 52.71997165 -62.68855286 55.27960205 C-67.7128817 60.29060488 -72.72908322 65.30966763 -77.74239901 70.33168612 C-81.81707461 74.41314156 -85.89467463 78.49165372 -89.97437286 82.56808853 C-90.55538413 83.14864009 -91.13639539 83.72919166 -91.73501305 84.32733569 C-92.91538842 85.50675187 -94.09577051 86.68616133 -95.27615926 87.86556412 C-106.33879732 98.9196518 -117.39222877 109.98290876 -128.4425256 121.04933156 C-137.9229804 130.54319276 -147.41127821 140.02915592 -156.90534973 149.50939941 C-167.93418271 160.52217648 -178.95813092 171.53980562 -189.97433257 182.56521904 C-191.14906302 183.74090513 -192.32379973 184.91658496 -193.49854279 186.09225845 C-194.07651889 186.67069739 -194.654495 187.24913632 -195.24998553 187.8451037 C-199.32204241 191.91975017 -203.39756869 195.99090649 -207.47444916 200.06072617 C-212.44235083 205.0202127 -217.40486897 209.98501161 -222.3605707 214.95668994 C-224.88882855 217.49282972 -227.41942125 220.02651602 -229.95658112 222.5537529 C-232.70680945 225.29338728 -235.44531705 228.04454829 -238.18275452 230.79696655 C-238.9863403 231.59386017 -239.78992608 232.39075378 -240.61786294 233.21179569 C-245.6418507 238.28939162 -249.89413959 242.88229553 -249.90632629 250.40148926 C-249.72810067 255.55453461 -248.58940642 258.35796278 -245.46882629 262.46398926 C-241.5467692 265.9299932 -238.04136166 267.02241093 -233.00788879 267.77648926 C-225.1017057 266.80342057 -219.72897641 261.2836125 -214.43014526 255.86595154 C-213.66195211 255.09694269 -212.89375896 254.32793385 -212.10228723 253.5356217 C-209.54045239 250.96634871 -206.99320986 248.3830878 -204.44563293 245.79968262 C-202.60776985 243.95086444 -200.76897529 242.10297182 -198.92932129 240.25593567 C-194.97376301 236.28204991 -191.02527952 232.30124768 -187.0812397 228.31593132 C-181.37212786 222.54762359 -175.64902271 216.79335789 -169.9218853 211.04295272 C-160.62041413 201.70349465 -151.32572357 192.35732372 -142.03742981 183.00476074 C-141.48207904 182.4455741 -140.92672827 181.88638746 -140.35454869 181.31025577 C-134.15806418 175.07067301 -127.96321429 168.8294711 -121.77015686 162.58648682 C-119.52365525 160.32192087 -117.27713786 158.05737059 -115.03059387 155.79284668 C-114.47622912 155.23403861 -113.92186437 154.67523055 -113.35070068 154.09948891 C-104.10080086 144.77610021 -94.83922534 135.46440524 -85.56845564 126.16176897 C-79.85558815 120.42825965 -74.15298703 114.68490048 -68.46330368 108.92838181 C-64.10239056 104.51789174 -59.72607694 100.12298761 -55.34391975 95.73361015 C-53.55081993 93.93247303 -51.76289461 92.12616732 -49.98058701 90.31435013 C-47.54557872 87.84049093 -45.0926625 85.38585624 -42.63449097 82.93504333 C-41.58475234 81.85499642 -41.58475234 81.85499642 -40.51380688 80.75313038 C-36.01690868 76.32006001 -31.78651391 73.52417163 -25.46882629 72.46398926 C-14.64768641 72.57279785 -7.67643564 82.10472944 -0.60650635 89.23297119 C0.14268017 89.98412555 0.89186669 90.73527991 1.66375583 91.50919652 C4.15394048 94.00705208 6.64050272 96.50848216 9.12712097 99.0098877 C10.91962906 100.80923153 12.71239082 102.60832268 14.50538635 104.40718079 C18.3561756 108.27126672 22.20555348 112.13675039 26.05391121 116.00325775 C32.13892345 122.11657741 38.22979536 128.22404084 44.32168579 134.33050537 C46.40928508 136.42322781 48.49685887 138.5159757 50.58443356 140.60872269 C51.10598781 141.13156298 51.62754207 141.65440327 52.16490101 142.19308721 C58.08946909 148.1323616 64.01314388 154.07252644 69.936203 160.01330566 C70.47712532 160.55584273 71.01804764 161.09837979 71.57536154 161.65735736 C80.35270875 170.46127498 89.12443729 179.27077329 97.89457787 188.0818691 C106.91067294 197.13970771 115.9344203 206.18987394 124.96488613 215.23338532 C130.52912203 220.80620988 136.08706659 226.3851626 141.63705205 231.97217998 C145.88787151 236.25015869 150.14909811 240.51761373 154.41430283 244.78125572 C156.16129654 246.53094876 157.90485113 248.28408335 159.644701 250.0408802 C162.01927103 252.43757425 164.40585584 254.82163037 166.7958374 257.20294189 C167.48203409 257.90147207 168.16823078 258.60000225 168.87522131 259.3197 C173.3411293 263.73485005 177.46604413 267.04163813 183.93742371 267.71398926 C189.54622589 267.04428153 193.49043821 265.49377425 197.53117371 261.46398926 C200.63380623 257.16033769 200.90188872 253.26467362 201.02726746 248.12414551 C199.56824167 240.30055052 193.53114761 235.03780769 188.11811829 229.66998291 C187.26138799 228.80857264 186.40465769 227.94716237 185.52196586 227.05964875 C183.15362033 224.681435 180.77876245 222.31009166 178.40083766 219.94147921 C175.83368133 217.38112549 173.27519132 214.81213618 170.71556091 212.2442627 C165.70455809 207.21993386 160.68549534 202.20373233 155.66347684 197.19041654 C151.58202141 193.11574094 147.50350925 189.03814092 143.42707443 184.95844269 C142.84652287 184.37743143 142.26597131 183.79642016 141.66782727 183.1978025 C140.48841109 182.01742713 139.30900164 180.83704504 138.12959884 179.6566563 C127.07551116 168.59401823 116.0122542 157.54058678 104.9458314 146.49028996 C95.4519702 137.00983515 85.96600705 127.52153734 76.48576355 118.02746582 C65.47298648 106.99863285 54.45535734 95.97468463 43.42994392 84.95848298 C42.25425783 83.78375253 41.07857801 82.60901582 39.90290451 81.43427277 C39.32446558 80.85629666 38.74602665 80.27832055 38.15005926 79.68283002 C34.07541279 75.61077314 30.00425647 71.53524686 25.9344368 67.45836639 C20.97495026 62.49046472 16.01015135 57.52794659 11.03847302 52.57224485 C8.50233325 50.043987 5.96864695 47.5133943 3.44141006 44.97623444 C0.70177568 42.2260061 -2.04938533 39.4874985 -4.80180359 36.75006104 C-5.5986972 35.94647526 -6.39559082 35.14288948 -7.21663272 34.31495261 C-12.29422866 29.29096486 -16.88713257 25.03867596 -24.40632629 25.02648926 C-25.59548645 24.99748535 -25.59548645 24.99748535 -26.80867004 24.96789551 C-34.63226503 26.4269213 -39.89500786 32.46401536 -45.26283264 37.87704468 Z M-32.12522888 115.68209839 C-32.81708888 116.24640409 -33.50894888 116.81070978 -34.22177434 117.39211565 C-36.5576624 119.30449114 -38.88476801 121.22709347 -41.20954895 123.1529541 C-42.02354416 123.82669323 -42.83753937 124.50043236 -43.67620111 125.19458783 C-65.88201028 143.62345357 -87.41585281 162.80146922 -108.56848276 182.42429417 C-110.08952062 183.83499592 -111.61205842 185.24406635 -113.13463306 186.65310907 C-159.76677049 229.8630296 -203.22599469 272.05482872 -206.40052474 339.25375867 C-206.86911883 352.34552245 -206.27185873 365.34355901 -205.34382629 378.40148926 C-205.27703454 379.38347259 -205.21024279 380.36545591 -205.14142704 381.37719631 C-203.72479042 401.95465399 -201.44525201 422.37833154 -197.71833801 442.67077637 C-197.59373428 443.36510922 -197.46913054 444.05944208 -197.34075093 444.77481532 C-195.54651746 454.57362649 -193.60171731 464.49343777 -185.46882629 470.96398926 C-178.08276661 475.87419748 -171.00974392 476.61972751 -162.2603302 476.57751465 C-161.45966125 476.57766068 -160.65899231 476.5778067 -159.83406067 476.57795715 C-157.2044752 476.57726405 -154.57496179 476.56950001 -151.94538879 476.56164551 C-150.11550434 476.55977919 -148.28561939 476.55835629 -146.45573425 476.55735779 C-141.65206001 476.55354948 -136.84841627 476.54373365 -132.04475403 476.53265381 C-127.13793856 476.52240337 -122.23111814 476.51785239 -117.32429504 476.51281738 C-107.7057921 476.50210982 -98.08731174 476.48505373 -88.46882629 476.46398926 C-88.46643794 475.87260886 -88.46404959 475.28122847 -88.46158886 474.67192745 C-88.40238776 460.26554201 -88.32680506 445.8593109 -88.23311138 431.45310879 C-88.18819407 424.48629204 -88.14877015 417.51952594 -88.12239075 410.5526123 C-88.09691585 403.82869287 -88.05598391 397.10502953 -88.00564003 390.38124275 C-87.98895988 387.81646597 -87.97745278 385.25165014 -87.97121239 382.68682671 C-87.9615842 379.09334547 -87.93353851 375.5004432 -87.90119934 371.90710449 C-87.90335197 370.31782639 -87.90335197 370.31782639 -87.9055481 368.69644165 C-87.8312043 362.85203375 -87.32541091 358.60695453 -84.46882629 353.46398926 C-80.58108121 349.77063143 -77.52060156 348.34447144 -72.20019531 348.32354736 C-71.32967026 348.31783722 -70.4591452 348.31212708 -69.5622406 348.3062439 C-68.60997589 348.30512604 -67.65771118 348.30400818 -66.67658997 348.30285645 C-65.6714183 348.29789154 -64.66624664 348.29292664 -63.63061523 348.28781128 C-60.29933492 348.27318482 -56.96810222 348.26638678 -53.63679504 348.26086426 C-51.3237508 348.25511315 -49.01070657 348.24935541 -46.69766235 348.24359131 C-41.84460732 348.2330799 -36.99156885 348.22723816 -32.13850403 348.22375488 C-25.92088233 348.21827027 -19.70347964 348.19424333 -13.48592663 348.16578293 C-8.70667888 348.1471563 -3.92748388 348.14195092 0.8517971 348.14041901 C3.14391464 348.13739196 5.43603123 348.12936169 7.72811317 348.11623383 C10.93582936 348.0991734 14.14301059 348.10105381 17.35075378 348.10754395 C18.2969458 348.09832916 19.24313782 348.08911438 20.21800232 348.07962036 C25.4150181 348.1125481 29.04206133 348.54660284 33.53117371 351.46398926 C37.77251729 355.93459466 38.64382316 359.33371681 38.68939209 365.34881592 C38.70407532 366.82112671 38.70407532 366.82112671 38.71905518 368.32318115 C38.72481064 369.39348572 38.7305661 370.46379028 38.73649597 371.56652832 C38.74639557 372.69852661 38.75629517 373.8305249 38.76649475 374.99682617 C38.79809968 378.74106754 38.82286334 382.4853216 38.84757996 386.22961426 C38.86815034 388.82464936 38.88914684 391.41968113 38.91055298 394.01470947 C38.96012065 400.14859988 39.00538826 406.28250824 39.04857534 412.41644645 C39.0979891 419.40071741 39.15289186 426.38494186 39.20825493 433.3691678 C39.32200072 447.73406458 39.42885583 462.09900677 39.53117371 476.46398926 C50.0671905 476.51044218 60.60318271 476.54592414 71.13928127 476.5676136 C76.03223744 476.57802632 80.92512325 476.59213946 85.81803894 476.61486816 C90.5448176 476.63668634 95.27152881 476.64857675 99.99835396 476.65374374 C101.79675927 476.65742343 103.59516112 476.66460877 105.39353752 476.67544937 C107.92313838 476.69008376 110.4524647 476.69196225 112.98210144 476.69104004 C113.71650452 476.69823059 114.45090759 476.70542114 115.20756531 476.71282959 C124.52810313 476.67634371 132.43949644 474.74479645 139.53117371 468.46398926 C155.92719437 447.81281085 154.35458443 404.05229082 156.15617371 378.83898926 C156.26494166 377.36421285 156.26494166 377.36421285 156.37590694 375.85964298 C160.08304991 324.19428376 153.33926004 282.33337372 118.85993958 242.15036011 C101.34059721 221.99630913 82.27069467 203.3632549 62.67830265 185.24667943 C61.15198175 183.83511247 59.62731151 182.42178008 58.10287571 181.00817776 C36.66372244 161.14335254 14.79000588 141.79069286 -7.72810364 123.1529541 C-8.52857959 122.48983931 -9.32905553 121.82672452 -10.15378833 121.14351535 C-12.36742956 119.31567904 -14.58782092 117.49656962 -16.81242371 115.68209839 C-17.46417163 115.14597018 -18.11591955 114.60984198 -18.78741741 114.05746746 C-25.01048819 109.02852557 -26.42428413 110.99249982 -32.12522888 115.68209839 Z " fill="#000000" transform="translate(280.4688262939453,5.5360107421875)"/>
</svg>
