<?xml version="1.0" encoding="UTF-8"?>
<svg version="1.1" xmlns="http://www.w3.org/2000/svg" width="512" height="512">
<path d="M0 0 C0.9792756 -0.00765109 1.9585512 -0.01530219 2.96750182 -0.02318513 C6.22845012 -0.04371987 9.48868584 -0.03588535 12.74967957 -0.02792358 C15.09604541 -0.03662358 17.44240557 -0.0469918 19.78875732 -0.05889893 C26.14839565 -0.085641 32.50779598 -0.08684045 38.86747956 -0.08177233 C44.8561511 -0.07935882 50.84478955 -0.09179829 56.8334479 -0.10263924 C69.42099899 -0.12436394 82.00844277 -0.12007804 94.59599986 -0.10786955 C106.0914069 -0.09753602 117.58647473 -0.12003363 129.08181468 -0.15806599 C140.90663935 -0.19688619 152.73130381 -0.21332358 164.55619258 -0.20581949 C171.18637279 -0.20200463 177.81630076 -0.2074147 184.44643593 -0.23524857 C190.68389721 -0.26045486 196.92068131 -0.25647101 203.15813255 -0.23042679 C205.44132087 -0.2257067 207.72455721 -0.23112365 210.00769043 -0.24767303 C234.06624405 -0.40942552 234.06624405 -0.40942552 243.85154438 8.26224327 C250.5704047 15.1388958 252.23571514 22.9787909 252.20353699 32.31045532 C252.15895974 34.63371644 252.09885156 36.95672733 252.02384949 39.27920532 C251.7938124 45.30809948 251.7938124 45.30809948 254.59635925 50.30215454 C256.64434563 51.54625621 258.70637552 52.53489925 260.88713074 53.52139282 C262.94572449 55.43545532 262.94572449 55.43545532 264.32463074 57.14639282 C265.03425964 58.00104126 265.03425964 58.00104126 265.75822449 58.87295532 C269.3515627 64.11997514 268.48909203 71.48840301 267.88713074 77.52139282 C266.67386781 80.65646423 265.0520745 82.9747353 262.88713074 85.52139282 C262.17041199 86.41729126 261.45369324 87.3131897 260.71525574 88.23623657 C259.81033386 89.36738892 259.81033386 89.36738892 258.88713074 90.52139282 C259.43240417 91.11565063 259.97767761 91.70990845 260.53947449 92.32217407 C264.55287959 96.73348942 268.46529347 101.18306985 272.19963074 105.83389282 C276.08904232 110.64644572 280.21456324 115.16737803 284.44059753 119.68032837 C288.37829129 123.90909906 292.0489962 128.30203791 295.64103699 132.82998657 C298.10272048 135.77972558 300.76012468 138.46657739 303.44963074 141.20889282 C308.53453236 146.71162357 308.53453236 146.71162357 308.63713074 151.08389282 C307.88713074 154.52139282 307.88713074 154.52139282 305.88713074 156.52139282 C303.42096623 157.12493894 301.00635442 157.63748347 298.51213074 158.08389282 C292.67150249 159.17173724 292.67150249 159.17173724 286.88713074 160.52139282 C287.15863953 161.29402466 287.43014832 162.06665649 287.70988464 162.86270142 C299.13525707 195.61092293 307.94909602 229.51776577 308.09025574 264.43154907 C308.09595581 265.55669418 308.10165588 266.68183929 308.10752869 267.84107971 C308.11693244 270.21863887 308.12349415 272.59621079 308.12736511 274.9737854 C308.13696278 278.52180415 308.16798634 282.06921537 308.19963074 285.61709595 C308.2909651 305.27333028 306.68946613 324.68261526 302.69963074 343.95889282 C302.49458923 344.96492554 302.28954773 345.97095825 302.07829285 347.00747681 C293.13999172 388.8498384 274.41034285 437.13386332 244.69572449 468.86123657 C242.3980276 472.24078643 242.19936402 475.25104113 241.94963074 479.20889282 C240.97705918 489.22045785 238.08577968 496.24951831 230.34025574 502.95108032 C223.57114564 507.28417309 217.59496164 509.11688254 209.58927917 509.02932739 C208.25194796 509.03868734 208.25194796 509.03868734 206.88759995 509.04823637 C203.92362651 509.06409085 200.96048412 509.05159177 197.99650574 509.03897095 C195.86202009 509.04439541 193.7275382 509.05151989 191.59306335 509.06021118 C185.81209083 509.07840869 180.03140462 509.07139162 174.25042725 509.05869484 C168.19279728 509.04854874 162.13519138 509.057965 156.07756042 509.0642395 C145.9059663 509.07151119 135.73448845 509.06194067 125.56291199 509.0428772 C113.81295834 509.02110948 102.06328234 509.02816118 90.31333542 509.05018282 C80.21455895 509.06835036 70.11586594 509.07088848 60.0170784 509.06042814 C53.99011434 509.0542007 47.96328069 509.05333708 41.93632507 509.0665741 C36.26940958 509.07815157 30.60285115 509.07007182 24.93597412 509.04699707 C22.85955396 509.04172017 20.7831036 509.04320624 18.70669556 509.05204773 C15.86572248 509.06302701 13.02588369 509.04921078 10.1849823 509.02932739 C8.96117418 509.04271172 8.96117418 509.04271172 7.71264267 509.05636644 C-0.93403616 508.93949766 -8.08412521 505.44500522 -14.32380676 499.54092407 C-19.71145591 493.45923279 -21.27255991 487.4895615 -21.92536926 479.52139282 C-22.52449417 472.88746004 -24.13629858 469.19746499 -28.65193176 464.29873657 C-58.72529862 430.35879398 -75.41666808 381.21419732 -84.11286926 337.52139282 C-84.43481262 335.93439575 -84.43481262 335.93439575 -84.76325989 334.31533813 C-91.71748573 298.23063292 -91.07781995 257.57057822 -84.11286926 221.52139282 C-83.89856262 220.38041138 -83.68425598 219.23942993 -83.4634552 218.06387329 C-79.69241704 198.48137165 -74.31109301 179.12980406 -67.11286926 160.52139282 C-68.05388489 160.32803345 -68.99490051 160.13467407 -69.96443176 159.93545532 C-71.20966614 159.6750647 -72.45490051 159.41467407 -73.73786926 159.14639282 C-74.96763489 158.89115845 -76.19740051 158.63592407 -77.46443176 158.37295532 C-86.33074636 156.30351573 -86.33074636 156.30351573 -88.11286926 154.52139282 C-88.81380706 147.53414968 -88.81380706 147.53414968 -86.02302551 143.50186157 C-85.08329895 142.58018188 -84.14357239 141.6585022 -83.17536926 140.70889282 C-82.15196958 139.67235789 -81.1311745 138.63324554 -80.11286926 137.59170532 C-79.60240051 137.07769165 -79.09193176 136.56367798 -78.56599426 136.03408813 C-76.45238037 133.83382744 -74.57015857 131.47327787 -72.67536926 129.08389282 C-69.30940066 124.89901236 -65.78105473 120.93830787 -62.11286926 117.02139282 C-57.60550498 112.20724086 -53.35810959 107.25541231 -49.22615051 102.11123657 C-45.98158495 98.13499449 -42.55834827 94.32362443 -39.11286926 90.52139282 C-39.51118958 90.0856897 -39.90950989 89.64998657 -40.31990051 89.20108032 C-41.11460754 88.30776001 -41.11460754 88.30776001 -41.92536926 87.39639282 C-42.70847473 86.52627563 -42.70847473 86.52627563 -43.50740051 85.63858032 C-48.82156188 78.63061083 -48.98792636 72.04325568 -48.11286926 63.52139282 C-46.44809316 57.80367967 -41.84387146 53.87251938 -37.11286926 50.52139282 C-35.78541988 49.84308584 -34.4527191 49.17486405 -33.11286926 48.52139282 C-33.11456116 47.43422974 -33.11456116 47.43422974 -33.11628723 46.32510376 C-33.01445396 18.49362909 -33.01445396 18.49362909 -24.47615051 8.63076782 C-17.54616053 1.97539283 -9.34198157 -0.07850863 0 0 Z M-15.63630676 18.66201782 C-22.29205797 27.04333415 -20.11286926 38.56620009 -20.11286926 48.52139282 C65.68713074 48.52139282 151.48713074 48.52139282 239.88713074 48.52139282 C240.97672509 32.80476712 240.97672509 32.80476712 235.41056824 18.66201782 C229.00216773 12.51697624 220.92447721 12.2226982 212.47502136 12.26742554 C211.55911476 12.26430556 210.64320816 12.26118557 209.69954681 12.25797105 C206.64742491 12.25002895 203.59550393 12.25629991 200.54338074 12.26260376 C198.3483112 12.25989222 196.15324257 12.25633037 193.95817566 12.25198364 C188.00786604 12.24287683 182.05762588 12.24639689 176.10731506 12.25274181 C169.87571528 12.25781061 163.64412138 12.25310791 157.41252136 12.24996948 C146.2783428 12.24609955 135.14419152 12.25230903 124.01001835 12.26248816 C113.92476935 12.27142305 103.8395664 12.26987081 93.75431824 12.26065063 C82.02882397 12.24993585 70.30335656 12.24596984 58.57785797 12.25187516 C52.37600601 12.2549908 46.17418573 12.25541533 39.97233582 12.24880219 C34.1413813 12.24301868 28.31051363 12.24704411 22.47956848 12.2585907 C20.34144739 12.26123189 18.20331897 12.26048144 16.06520081 12.25606537 C13.14311573 12.25058721 10.22130763 12.25747169 7.29924011 12.26742554 C6.45642738 12.26296409 5.61361465 12.25850265 4.74526215 12.25390601 C-2.89389354 12.3042576 -9.92639916 13.18676395 -15.63630676 18.66201782 Z M-33.11286926 63.52139282 C-35.56408323 67.19821378 -35.93705688 70.25060245 -35.11286926 74.52139282 C-32.41764331 78.04016003 -30.43042134 79.75005113 -26.11286926 80.52139282 C-24.54130473 80.61123964 -22.96643523 80.65043052 -21.39230633 80.65282059 C-19.96560998 80.6585823 -19.96560998 80.6585823 -18.51009148 80.66446042 C-16.94722388 80.6631607 -16.94722388 80.6631607 -15.3527832 80.66183472 C-13.68897573 80.6662914 -13.68897573 80.6662914 -11.99155599 80.67083812 C-8.26139698 80.6795347 -4.53127003 80.68103418 -0.80110168 80.68252563 C1.86790112 80.68715309 4.536901 80.69215699 7.2059021 80.6975708 C14.4662326 80.7111485 21.72655758 80.71717785 28.98689866 80.72158146 C33.52045893 80.72434461 38.05401708 80.72858208 42.58757591 80.73308563 C55.14043576 80.74527715 67.69329391 80.75557697 80.24615955 80.75896072 C81.0494484 80.75918029 81.85273724 80.75939986 82.68036817 80.75962608 C83.4855734 80.75984435 84.29077864 80.76006263 85.12038404 80.76028752 C86.75202421 80.76073099 88.38366439 80.76117755 90.01530457 80.7616272 C90.8246536 80.76184863 91.63400264 80.76207006 92.46787741 80.7622982 C105.583502 80.76624659 118.69907104 80.78370238 131.81467418 80.80698672 C145.28119461 80.83070105 158.74768716 80.8431626 172.21422881 80.84432864 C179.77484678 80.84524531 187.33539235 80.85099569 194.89599037 80.86914825 C201.33363923 80.88455029 207.77119332 80.88966909 214.2088571 80.88141015 C217.49279125 80.87750408 220.77649469 80.880064 224.06041336 80.8924675 C227.62247176 80.90513349 231.18403905 80.89933881 234.74609375 80.8888855 C236.2989231 80.9009701 236.2989231 80.9009701 237.88312274 80.91329885 C243.64481461 80.87370503 247.83690944 80.39170934 252.88713074 77.52139282 C255.33834471 73.84457187 255.71131835 70.7921832 254.88713074 66.52139282 C252.19190479 63.00262561 250.20468281 61.29273452 245.88713074 60.52139282 C244.31556621 60.431546 242.74069671 60.39235513 241.1665678 60.38996506 C240.2154369 60.38612391 239.26430601 60.38228277 238.28435296 60.37832522 C237.24244123 60.37919171 236.20052949 60.38005819 235.12704468 60.38095093 C234.0178397 60.37797981 232.90863472 60.37500868 231.76581746 60.37194753 C228.03565846 60.36325094 224.30553151 60.36175147 220.57536316 60.36026001 C217.90636035 60.35563255 215.23736047 60.35062865 212.56835938 60.34521484 C205.30802887 60.33163714 198.0477039 60.32560779 190.78736281 60.32120419 C186.25380254 60.31844103 181.7202444 60.31420356 177.18668556 60.30970001 C164.63382571 60.29750849 152.08096757 60.28720868 139.52810192 60.28382492 C138.32316866 60.28349557 138.32316866 60.28349557 137.09389331 60.28315957 C136.28868807 60.28294129 135.48348283 60.28272301 134.65387744 60.28249812 C133.02223726 60.28205466 131.39059708 60.28160809 129.75895691 60.28115845 C128.94960787 60.28093702 128.14025883 60.28071559 127.30638406 60.28048745 C114.19075947 60.27653906 101.07519043 60.25908326 87.9595873 60.23579893 C74.49306687 60.2120846 61.02657431 60.19962305 47.56003267 60.198457 C39.9994147 60.19754033 32.43886913 60.19178995 24.8782711 60.17363739 C18.44062225 60.15823535 12.00306816 60.15311655 5.56540438 60.16137549 C2.28147022 60.16528157 -1.00223321 60.16272164 -4.28615189 60.15031815 C-7.84821029 60.13765215 -11.40977757 60.14344683 -14.97183228 60.15390015 C-16.52466163 60.14181554 -16.52466163 60.14181554 -18.10886127 60.1294868 C-23.87055313 60.16908061 -28.06264796 60.6510763 -33.11286926 63.52139282 Z M-30.80103302 100.08864117 C-31.23393898 100.89144921 -31.66684494 101.69425726 -32.11286926 102.52139282 C-33.31363098 103.96965454 -33.31363098 103.96965454 -34.53865051 105.44717407 C-35.1612677 106.23479126 -35.78388489 107.02240845 -36.42536926 107.83389282 C-39.83707805 112.05536146 -43.4058825 116.06229361 -47.11286926 120.02139282 C-51.64067527 124.85791288 -55.91410194 129.83081926 -60.06599426 134.99795532 C-62.98264918 138.59367875 -66.03304786 142.06525884 -69.11286926 145.52139282 C-66.30000362 147.49065438 -66.30000362 147.49065438 -63.83552551 148.64248657 C-56.25719651 152.39270225 -50.60025095 157.412176 -44.55622864 163.17276001 C-42.37469642 165.21111995 -40.10727531 167.12693361 -37.80036926 169.02139282 C-37.06173645 169.62983032 -36.32310364 170.23826782 -35.56208801 170.86514282 C-27.50784715 176.31171081 -19.45778981 176.45866886 -10.11286926 175.52139282 C-0.30157586 172.97072645 6.97499895 164.37822857 13.96916199 157.46279907 C24.2352098 147.7586823 36.22634972 145.08406879 49.87931824 145.31045532 C54.92976288 145.5013494 59.24690715 146.51062927 63.88713074 148.52139282 C64.74306824 148.87717407 65.59900574 149.23295532 66.48088074 149.59951782 C72.51576204 152.47822557 76.81318175 156.19694564 81.38713074 160.95889282 C89.93351265 169.84567296 98.08856499 176.10853586 110.88713074 176.52139282 C123.79057844 176.05500315 132.25658346 167.35950326 140.67936707 158.59365845 C149.15456784 149.94468515 158.8683319 145.35791085 171.05583191 145.14102173 C179.68120931 145.15896917 187.11770962 145.31956303 194.88713074 149.52139282 C195.62447449 149.9106897 196.36181824 150.29998657 197.12150574 150.70108032 C202.0065887 153.6286655 205.82478624 157.38672923 209.76213074 161.45889282 C218.17505358 170.1048053 226.4081724 176.11884578 238.88713074 176.52139282 C251.44335343 176.06755345 259.86343 167.76604159 268.12150574 159.17764282 C274.0836077 153.4513302 281.18400568 149.43146229 288.88713074 146.52139282 C286.15408192 142.2083997 283.22268095 138.5602937 279.69963074 134.83389282 C276.1344256 131.02187036 272.71552253 127.16029791 269.44963074 123.08389282 C265.61354671 118.31452181 261.53428965 113.8467421 257.35295105 109.38394165 C253.20648647 104.93243291 249.33881291 100.31520195 245.53166199 95.56826782 C244.04894317 93.64708759 244.04894317 93.64708759 242.88713074 92.52139282 C241.47278993 92.4159026 240.05324358 92.37931756 238.63500214 92.37041187 C237.71197815 92.36225384 236.78895417 92.3540958 235.83795977 92.34569055 C234.81201944 92.34178219 233.78607911 92.33787384 232.72904968 92.33384705 C231.64832042 92.32593696 230.56759116 92.31802688 229.45411253 92.3098771 C225.80224176 92.28464689 222.15037352 92.26684606 218.49845886 92.24917603 C215.89225584 92.23310076 213.28605468 92.21672105 210.67985535 92.20005798 C186.86189888 92.05318321 163.04334592 91.98007119 139.22502899 91.92113972 C136.036224 91.91311079 132.8474194 91.90494253 129.65861511 91.89663696 C128.86603788 91.89457936 128.07346064 91.89252176 127.25686592 91.8904018 C114.42669928 91.8560054 101.5970333 91.78337618 88.76713187 91.69572935 C75.59677443 91.60650181 62.42667634 91.55520341 49.25602293 91.53983754 C41.86036476 91.53018505 34.46560722 91.50346933 27.07025146 91.43352699 C20.10962585 91.36772443 13.1504949 91.35271634 6.18959045 91.37202263 C3.63578578 91.3708685 1.08192232 91.35259737 -1.47161865 91.31587982 C-18.41733638 90.29794846 -18.41733638 90.29794846 -30.80103302 100.08864117 Z M23.88713074 165.52139282 C21.76295619 167.60949387 19.73663158 169.78611268 17.69963074 171.95889282 C9.40512775 180.76258578 -1.4981534 187.04022717 -13.74958801 187.72451782 C-27.19462551 187.98597209 -39.11583706 185.53300874 -49.58552551 176.35342407 C-51.4897943 174.45587228 -53.33065876 172.53340124 -55.11286926 170.52139282 C-57.28566512 171.34104311 -57.28566512 171.34104311 -57.9790802 173.50137329 C-58.95389466 176.4625504 -59.92306489 179.42385927 -60.86286926 182.39639282 C-61.21631409 183.51102905 -61.56975891 184.62566528 -61.93391418 185.77407837 C-69.78161383 211.18474909 -75.20097596 238.10318237 -75.31599426 264.77529907 C-75.32169434 265.83385605 -75.32739441 266.89241302 -75.33326721 267.98304749 C-75.34266659 270.21937072 -75.34923091 272.45570749 -75.35310364 274.69204712 C-75.36269336 278.02279776 -75.39371753 281.35289891 -75.42536926 284.6835022 C-75.52403755 304.46562371 -73.88709869 324.0522388 -69.30036926 343.33389282 C-69.0417511 344.45296021 -68.78313293 345.57202759 -68.51667786 346.7250061 C-61.21497449 377.67874436 -49.6444982 407.19533903 -33.17536926 434.45889282 C-32.66345032 435.30822388 -32.15153137 436.15755493 -31.62409973 437.03262329 C-30.55062814 438.76150511 -29.44044652 440.46808977 -28.29623413 442.15098953 C-26.6036615 444.67577315 -25.16194666 447.2762257 -23.72579956 449.95417404 C-18.69842596 458.77248129 -18.69842596 458.77248129 -10.66929054 464.57555676 C-3.63604939 466.27023408 3.5533145 465.97332015 10.73869324 465.85049438 C13.14321957 465.87491818 15.54767847 465.90698631 17.95201111 465.94607544 C23.7801383 466.01936254 29.60357007 466.00903374 35.43183565 465.9566479 C40.1719403 465.9158239 44.91087738 465.91055518 49.65110779 465.9300766 C50.32833189 465.93283479 51.00555598 465.93559299 51.70330203 465.93843476 C53.07950991 465.94419042 54.45571747 465.95002627 55.83192468 465.95594141 C68.70652406 466.00714699 81.57880848 465.94845494 94.45302796 465.85153481 C105.47584002 465.7711185 116.4952396 465.78509067 127.51799011 465.86807251 C140.34942628 465.96462675 153.1788389 466.0022045 166.01058769 465.94705176 C167.38144271 465.9413185 168.75229805 465.93565981 170.12315369 465.9300766 C171.13461423 465.92591116 171.13461423 465.92591116 172.16650832 465.92166157 C176.89543443 465.90618507 181.62306592 465.93220565 186.35179138 465.97470856 C192.73015626 466.02692189 199.10211393 465.99029884 205.47978973 465.88661194 C207.81244029 465.86291822 210.14563535 465.8694697 212.47806549 465.9093399 C224.4826632 466.40815051 224.4826632 466.40815051 235.10037422 461.7328043 C239.05403585 457.46386802 242.02758342 452.72833844 244.7656498 447.61348391 C246.17090814 444.99201408 247.7834893 442.53168419 249.43009949 440.05654907 C250.32179169 438.57173091 251.20366747 437.08096427 252.07463074 435.58389282 C252.5596405 434.76090698 253.04465027 433.93792114 253.5443573 433.08999634 C278.0968197 391.03728926 294.86573407 342.6025343 295.09025574 293.48623657 C295.10084518 291.94386322 295.10084518 291.94386322 295.11164856 290.37033081 C295.43622981 259.80817792 295.43622981 259.80817792 291.88713074 229.52139282 C291.68845398 228.40216431 291.48977722 227.28293579 291.28507996 226.12979126 C286.3278277 197.47572398 286.3278277 197.47572398 275.88713074 170.52139282 C274.40213074 171.82076782 274.40213074 171.82076782 272.88713074 173.14639282 C271.55770366 174.27600621 270.2241832 175.40081552 268.88713074 176.52139282 C267.94933777 177.31029907 267.94933777 177.31029907 266.99259949 178.11514282 C255.25792245 187.48376482 242.38306634 188.60556001 227.88713074 187.52139282 C223.84060484 186.71941997 220.50717264 185.47917059 216.88713074 183.52139282 C216.14978699 183.13209595 215.41244324 182.74279907 214.65275574 182.34170532 C209.76767278 179.41412014 205.94947524 175.65605641 202.01213074 171.58389282 C193.5992079 162.93798035 185.36608908 156.92393987 172.88713074 156.52139282 C161.34250092 156.9386686 153.24669121 163.90877191 145.69963074 171.95889282 C137.40512775 180.76258578 126.5018466 187.04022717 114.25041199 187.72451782 C106.33992768 187.87834632 99.26222926 187.71726885 91.88713074 184.52139282 C91.03119324 184.16561157 90.17525574 183.80983032 89.29338074 183.44326782 C83.25849943 180.56456007 78.96107973 176.84584001 74.38713074 172.08389282 C59.36688208 156.46539499 41.93233522 151.07550136 23.88713074 165.52139282 Z M-9.11286926 476.52139282 C-8.11354024 484.51602497 -7.30466548 487.3295966 -1.86286926 492.77139282 C4.07295234 496.54873384 10.62775219 496.81563904 17.46403503 496.77536011 C18.29010348 496.77848009 19.11617193 496.78160007 19.96727276 496.7848146 C22.71537248 496.79274596 25.4632484 496.78649003 28.21134949 496.78018188 C30.18967314 496.78289391 32.16799579 496.78645602 34.14631653 496.790802 C39.50573844 496.79990312 44.86508316 496.79639112 50.22450638 496.79004383 C55.83950759 496.78497207 61.4545023 496.78967856 67.06950378 496.79281616 C76.49798262 496.79645237 85.9264301 496.79166575 95.35490417 496.78213501 C106.24761944 496.77125114 117.14025983 496.77477696 128.03297329 496.78578782 C137.39369821 496.79487051 146.75440062 496.79614116 156.11512852 496.79091048 C161.70217681 496.7877962 167.28918994 496.78736659 172.87623596 496.79398346 C178.12936779 496.79977055 183.3824033 496.79573501 188.63552475 496.78419495 C190.56078812 496.78155566 192.48605963 496.78230093 194.41131973 496.78672028 C197.04439723 496.79220607 199.67716832 496.78530492 202.31022644 496.77536011 C203.44604424 496.78205227 203.44604424 496.78205227 204.60480785 496.78887963 C212.15823085 496.73375426 218.74061776 495.58424053 224.41056824 490.30264282 C227.86779007 486.13202601 228.88713074 481.84574334 228.88713074 476.52139282 C150.34713074 476.52139282 71.80713074 476.52139282 -9.11286926 476.52139282 Z " fill="#000000" transform="translate(146.1128692626953,1.478607177734375)"/>
<path d="M0 0 C4.95179304 2.57493238 6.29301513 6.51154772 8.125 11.625 C11.125 21.57680723 11.125 21.57680723 11.125 26.625 C11.91261719 26.34785156 12.70023438 26.07070312 13.51171875 25.78515625 C21.06009983 23.27498455 29.08599188 20.72047025 37.125 21.625 C39.49609375 23.25390625 39.49609375 23.25390625 41.125 25.625 C42.12121857 34.47889254 39.02644043 43.37951115 36.125 51.625 C36.85203125 51.71136719 37.5790625 51.79773438 38.328125 51.88671875 C46.06820479 52.96834529 53.23111669 54.84122366 60.125 58.625 C62.1624008 61.68110121 62.62127951 62.96560016 61.98046875 66.5390625 C59.98346367 71.40847216 55.80891343 74.98692064 52.125 78.625 C51.43019531 79.33011719 50.73539063 80.03523438 50.01953125 80.76171875 C42.49691954 87.94560123 33.09419961 93.62970179 23.125 96.625 C23.26429932 97.28927002 23.40359863 97.95354004 23.54711914 98.63793945 C27.66796521 119.50531918 26.03380495 139.5796579 14.125 157.625 C11.60005135 161.0895865 8.90975044 164.36726713 6.125 167.625 C5.53203125 168.36363281 4.9390625 169.10226562 4.328125 169.86328125 C-13.16802393 190.91099887 -41.47796272 205.12054868 -67.875 210.625 C-68.91140625 210.84800781 -69.9478125 211.07101562 -71.015625 211.30078125 C-88.96556542 214.61565718 -109.4220645 214.11378107 -125.390625 204.36328125 C-138.12041886 195.45642863 -145.96331492 184.02564837 -148.875 168.625 C-149.05675781 167.72394531 -149.23851562 166.82289063 -149.42578125 165.89453125 C-153.03482308 139.6269833 -145.32178141 114.47922463 -132.875 91.625 C-132.2975 90.54347656 -131.72 89.46195312 -131.125 88.34765625 C-127.09817796 81.10496938 -122.30851167 74.86483381 -116.875 68.625 C-115.77478516 67.32369141 -115.77478516 67.32369141 -114.65234375 65.99609375 C-102.64343161 52.12336455 -86.23113721 40.83677865 -67.875 37.625 C-64.16869914 37.41002154 -60.46196927 37.43987947 -56.75 37.4375 C-55.76773438 37.42525391 -54.78546875 37.41300781 -53.7734375 37.40039062 C-46.93708553 37.38689783 -40.55363882 38.17793426 -33.875 39.625 C-33.45541016 38.51705078 -33.45541016 38.51705078 -33.02734375 37.38671875 C-27.49168017 23.37846396 -16.58877227 2.67560843 0 0 Z M-4.875 17.625 C-13.19906622 26.37160765 -19.00618897 34.79744575 -21.875 46.625 C-20.99199219 47.23085938 -20.10898437 47.83671875 -19.19921875 48.4609375 C-4.57355091 58.61554626 6.28429015 69.74285266 16.125 84.625 C27.72527621 81.98285466 36.56380086 75.69558601 45.125 67.625 C42.27528142 66.04928277 39.86946041 65.27676005 36.6484375 64.84375 C35.813125 64.72386719 34.9778125 64.60398437 34.1171875 64.48046875 C32.36472453 64.24244766 30.61211852 64.00547749 28.859375 63.76953125 C28.02664063 63.64964844 27.19390625 63.52976562 26.3359375 63.40625 C25.57587402 63.30376953 24.81581055 63.20128906 24.03271484 63.09570312 C22.125 62.625 22.125 62.625 20.125 60.625 C19.45341905 54.86619333 21.58245638 50.7726939 23.9921875 45.66015625 C25.52689455 42.30572513 26.125 40.404009 26.125 36.625 C20.32159025 37.01189398 16.03290475 38.92182093 10.87109375 41.56640625 C7.73060418 42.77703594 5.46379252 42.95747443 2.125 42.625 C-0.17940324 40.32059676 -0.23367028 39.54819541 -0.65625 36.4140625 C-0.77613281 35.58132812 -0.89601563 34.74859375 -1.01953125 33.890625 C-1.13683594 33.01921875 -1.25414062 32.1478125 -1.375 31.25 C-1.60820772 29.53297616 -1.84758501 27.81677662 -2.09375 26.1015625 C-2.19623047 25.33924316 -2.29871094 24.57692383 -2.40429688 23.79150391 C-2.90546801 21.48476499 -3.73654148 19.68392679 -4.875 17.625 Z M-77.875 54.625 C-78.79410156 55.04910156 -79.71320313 55.47320312 -80.66015625 55.91015625 C-106.31251287 68.86261198 -123.29931298 95.52655817 -132.17382812 122.09106445 C-133.16542764 125.24894501 -134.03566494 128.42283093 -134.875 131.625 C-135.11992187 132.52734375 -135.36484375 133.4296875 -135.6171875 134.359375 C-138.91165501 148.89113578 -138.57128759 166.27580422 -131.296875 179.4921875 C-126.0517304 187.45441151 -119.72978872 193.06727239 -110.875 196.625 C-110.1325 196.92535156 -109.39 197.22570312 -108.625 197.53515625 C-86.74101394 204.88680782 -61.45988149 197.20424266 -41.51953125 187.5546875 C-32.62631152 183.09526035 -24.52873774 178.02419946 -16.875 171.625 C-16.37129883 171.20492676 -15.86759766 170.78485352 -15.34863281 170.35205078 C-2.22739197 159.27253088 10.50772935 144.28500114 12.34448242 126.49975586 C13.4191963 105.66562745 6.94420182 90.17753813 -6.875 74.625 C-7.50148438 73.91472656 -8.12796875 73.20445312 -8.7734375 72.47265625 C-19.64457512 60.89053705 -35.23017236 51.09786116 -51.390625 50.2890625 C-60.89071628 50.10820302 -69.11605555 50.54427262 -77.875 54.625 Z " fill="#000000" transform="translate(299.875,213.375)"/>
<path d="M0 0 C2.89479637 1.73687782 3.01335881 3.05152682 3.875 6.375 C4.01384714 10.40156711 3.47120257 11.88811528 1 15 C-2.13871188 16.56935594 -4.53855822 16.35201103 -8 16 C-10.9375 13.9375 -10.9375 13.9375 -13 11 C-13.53416903 7.19404569 -13.55569356 5.00554073 -11.6875 1.625 C-8.07389756 -1.85476532 -4.57863555 -0.98113619 0 0 Z " fill="#000000" transform="translate(226,347)"/>
<path d="M0 0 C2.9375 2.0625 2.9375 2.0625 5 5 C5.62601538 8.96476406 5.65946039 10.99762021 3.4375 14.375 C0.17160572 16.55226285 -2.07983866 17 -6 17 C-8.875 15.5 -8.875 15.5 -11 13 C-12.1659741 8.99196403 -12.43240501 6.94717289 -10.6875 3.125 C-7.63595781 -0.71768276 -4.73184339 -0.48120441 0 0 Z " fill="#000000" transform="translate(270,301)"/>
<path d="M0 0 C3.63525215 2.60789828 4.83397068 4.0702358 5.625 8.5 C4.83397068 12.9297642 3.63525215 14.39210172 0 17 C-3.87440468 17.55348638 -6.78044012 17.29968563 -10 15 C-12.04950964 12.36491618 -11.9979723 10.8864488 -11.9375 7.5 C-11 4 -11 4 -8.8125 1.5625 C-5.43724821 -0.31263988 -3.7992366 -0.71235686 0 0 Z " fill="#000000" transform="translate(236,380)"/>
<path d="M0 0 C2.5 1.5 2.5 1.5 4 4 C4.79710231 8.05193677 4.68780769 10.96828847 2.375 14.4375 C-0.5659132 16.37231132 -2.47650456 16.92809193 -6 17 C-8.86332091 15.76356597 -10.49288133 14.66847461 -12.375 12.1875 C-13.26089715 9.08685996 -12.89945179 7.08383471 -12 4 C-8.94535569 -0.64305935 -5.16474221 -1.01601486 0 0 Z " fill="#000000" transform="translate(203,369)"/>
<path d="M0 0 C2.81831785 2.59581908 3.85564038 4.23008205 4.5625 8 C3.78056289 12.17033126 2.44652326 13.55871269 -1 16 C-4.07549372 16.75517074 -5.73164594 16.51878636 -9 16 C-12.2883921 13.28707652 -12.90851499 11.65183071 -13.5 7.4375 C-13 4 -13 4 -11.1875 1.625 C-7.28917066 -1.2709018 -4.57359406 -1.30674116 0 0 Z " fill="#000000" transform="translate(260,358)"/>
<path d="M0 0 C4.4297642 0.79102932 5.89210172 1.98974785 8.5 5.625 C9.21235686 9.4242366 8.81263988 11.06224821 6.9375 14.4375 C3.73003157 17.31599731 1.7850666 17.70017661 -2.5 17.625 C-5.30189446 15.85858828 -7.01524911 14.59450178 -8.5 11.625 C-9.03507099 7.6119676 -8.83051628 6.08571967 -6.4375 2.75 C-3.5 0.625 -3.5 0.625 0 0 Z " fill="#000000" transform="translate(187.5,334.375)"/>
<path d="M0 0 C3.76991795 0.70685962 5.40418092 1.74418215 8 4.5625 C9.24721924 8.22620652 9.36297705 9.80197666 7.6875 13.3125 C6 15.5625 6 15.5625 4 17.5625 C0.01290927 18.01386876 -2.34249664 17.8982464 -5.9375 16.0625 C-8.29743405 13.20197388 -8.73357225 11.23850428 -8.484375 7.53515625 C-7.35495035 2.93548328 -4.47943948 0.8398949 0 0 Z " fill="#000000" transform="translate(210,311.4375)"/>
<path d="M0 0 C2.5 1.5 2.5 1.5 4 4 C4.67595245 7.79154935 4.47842566 10.90243524 2.9375 14.4375 C0.01717965 16.79259706 -2.29462195 16.93611417 -6 17 C-8.37633793 15.86349056 -10.14441029 14.85558971 -12 13 C-12.52472964 8.75915225 -12.68759225 5.17463675 -10.5 1.4375 C-6.95397683 -0.60146332 -3.99298467 -0.78550518 0 0 Z " fill="#000000" transform="translate(282,335)"/>
<path d="M0 0 C1.625 3.3125 1.625 3.3125 2 7 C-0.04545455 12.52272727 -0.04545455 12.52272727 -3 14 C-10.0521327 14.56872038 -10.0521327 14.56872038 -13.5 12.5 C-15.61073921 8.98210132 -15.82202069 6.00324076 -15 2 C-13.23795406 -0.45427827 -11.83996588 -1.56553489 -9.1875 -2.9375 C-5.46634789 -3.04381863 -3.16795663 -1.87730763 0 0 Z " fill="#000000" transform="translate(251,326)"/>
<path d="M0 0 C2.5 1.5 2.5 1.5 4 4 C4.791013 8.02098277 4.62153384 10.96411027 2.5 14.5 C-1.04101433 16.6246086 -3.97168467 16.66173558 -8 16 C-10.4375 14.9375 -10.4375 14.9375 -12 13 C-13.10373378 9.02655839 -13.41543583 6.91000228 -11.6875 3.125 C-8.57721191 -0.79165908 -4.7089521 -0.64212983 0 0 Z " fill="#000000" transform="translate(237,290)"/>
</svg>
