<?xml version="1.0" encoding="UTF-8"?>
<svg version="1.1" xmlns="http://www.w3.org/2000/svg" width="512" height="512">
<path d="M0 0 C1.16885742 -0.00559937 2.33771484 -0.01119873 3.54199219 -0.01696777 C7.33021025 -0.02884659 11.11803239 -0.02259929 14.90625 -0.01171875 C16.21247314 -0.00989594 17.51869629 -0.00807312 18.86450195 -0.00619507 C67.63492631 0.08812552 116.45194982 4.25153534 164.40625 13.30078125 C165.59250977 13.5234668 166.77876953 13.74615234 168.00097656 13.97558594 C203.80970896 20.80225743 239.58401731 30.13481307 272.40625 46.30078125 C273.2017627 46.6870166 273.99727539 47.07325195 274.81689453 47.47119141 C291.86264202 55.81476206 306.82349404 66.03998692 320.40625 79.30078125 C321.20417969 80.03683594 322.00210937 80.77289063 322.82421875 81.53125 C336.0001139 93.98145041 345.98134994 111.71070823 350.40625 129.30078125 C350.57215637 129.93996994 350.73806274 130.57915863 350.90899658 131.23771667 C353.16817454 141.46901706 352.73484684 151.94414908 352.7421875 162.36328125 C352.74862832 164.521648 352.7553576 166.6800139 352.76235962 168.83837891 C352.77429516 173.35369893 352.7780445 177.86894268 352.77685547 182.38427734 C352.77665299 188.1184665 352.80389912 193.85215614 352.83839989 199.58622742 C352.86084441 204.04431317 352.86468761 208.50228228 352.86363602 212.9604187 C352.86596783 215.07154045 352.8746515 217.18266665 352.89030075 219.29373169 C353.10061841 250.60621126 344.51202245 278.09640029 324.40625 302.30078125 C323.73722656 303.12320312 323.06820313 303.945625 322.37890625 304.79296875 C317.34144846 310.74726446 311.58988706 315.5716053 305.40625 320.30078125 C304.61476563 320.90792969 303.82328125 321.51507813 303.0078125 322.140625 C283.63842168 336.3298299 260.72423041 343.72120263 236.76171875 344.6953125 C235.27843956 344.76098747 233.79520511 344.82767874 232.31201172 344.89526367 C231.54242126 344.93009857 230.77283081 344.96493347 229.97991943 345.00082397 C187.82066144 346.98773874 150.84200821 358.53021107 112.01879883 374.38134766 C48.78909421 400.18673247 48.78909421 400.18673247 16.3046875 400.5390625 C15.55395462 400.54881104 14.80322174 400.55855957 14.02973938 400.56860352 C-2.53187077 400.73943312 -18.47652564 400.61103939 -34.59375 396.30078125 C-35.32239258 396.10822754 -36.05103516 395.91567383 -36.80175781 395.71728516 C-41.47873741 394.44203582 -46.0321024 392.94087048 -50.59375 391.30078125 C-51.53009277 390.96457764 -51.53009277 390.96457764 -52.48535156 390.62158203 C-78.06654753 381.29359575 -102.15873061 365.32092368 -119.59375 344.30078125 C-120.29242188 343.48996094 -120.99109375 342.67914063 -121.7109375 341.84375 C-144.74781911 314.62196775 -159.66716839 279.0065669 -159.77075195 243.12475586 C-159.77732315 242.12519363 -159.78389435 241.12563141 -159.79066467 240.09577942 C-159.81031647 236.798227 -159.82204873 233.5007202 -159.83203125 230.203125 C-159.83610678 229.0675522 -159.8401823 227.93197941 -159.84438133 226.76199532 C-159.86521807 220.73903717 -159.87952427 214.71610158 -159.88891602 208.69311523 C-159.89991218 202.53092386 -159.93424002 196.36910039 -159.97408772 190.20703793 C-160.00049605 185.42028731 -160.0086296 180.63362068 -160.01219749 175.84680367 C-160.01700947 173.57906197 -160.02846507 171.31132261 -160.04723549 169.04365349 C-160.20796087 148.32086557 -157.62049212 128.84454797 -150.59375 109.30078125 C-150.36961426 108.67655273 -150.14547852 108.05232422 -149.91455078 107.40917969 C-140.5865645 81.82798372 -124.61389243 57.73580064 -103.59375 40.30078125 C-102.78292969 39.60210937 -101.97210938 38.9034375 -101.13671875 38.18359375 C-73.10509174 14.46136767 -36.85897219 -0.02610798 0 0 Z M-55.59375 34.30078125 C-56.5321875 34.71714844 -57.470625 35.13351563 -58.4375 35.5625 C-71.49179997 41.68608964 -83.28323979 50.26586644 -93.59375 60.30078125 C-94.62965968 61.26361147 -95.66615379 62.22581315 -96.703125 63.1875 C-108.01816284 73.87355289 -116.7073516 86.34569744 -123.59375 100.30078125 C-124.09390625 101.30238281 -124.5940625 102.30398437 -125.109375 103.3359375 C-134.55096757 122.9582372 -138.8255391 143.01005565 -138.84375 164.67578125 C-138.84442474 165.39420197 -138.84509949 166.11262268 -138.84579468 166.85281372 C-138.82968374 177.64067018 -138.32625921 187.81147169 -135.59375 198.30078125 C-135.42746094 198.97496094 -135.26117188 199.64914063 -135.08984375 200.34375 C-129.47796245 222.8328447 -118.65898265 242.72467649 -103.59375 260.30078125 C-102.71976563 261.35652344 -102.71976563 261.35652344 -101.828125 262.43359375 C-97.78965829 267.21790341 -93.44446016 271.34895061 -88.59375 275.30078125 C-87.64628906 276.07421875 -86.69882813 276.84765625 -85.72265625 277.64453125 C-64.11941815 294.94062375 -38.25813255 306.41292162 -10.59375 309.30078125 C-9.37300781 309.43484375 -8.15226563 309.56890625 -6.89453125 309.70703125 C33.91612732 313.4923968 71.75766319 298.38294046 108.61645508 282.93969727 C121.21257451 277.67522804 133.82137406 272.64983759 146.7734375 268.3203125 C147.84451248 267.96195816 148.91558746 267.60360382 150.01911926 267.23439026 C178.07199841 258.07448648 206.81447514 254.29813912 236.21875 254.17578125 C237.16878906 254.17102783 238.11882812 254.16627441 239.09765625 254.16137695 C239.9896875 254.16355225 240.88171875 254.16572754 241.80078125 254.16796875 C242.59331299 254.16909668 243.38584473 254.17022461 244.20239258 254.17138672 C246.43822007 254.3026583 248.30018922 254.53103309 250.40625 255.30078125 C252.68998235 259.86824596 252.58747017 263.3941744 251.40625 268.30078125 C250.08786285 270.68643419 249.34361532 271.97538177 246.74438477 272.87768555 C243.59644478 273.44731904 240.50519019 273.56204515 237.30859375 273.6953125 C235.86608875 273.76115622 234.42362584 273.82792711 232.98120117 273.89550781 C231.84695206 273.94777527 231.84695206 273.94777527 230.68978882 274.00109863 C206.60731881 275.15267144 183.50495921 278.17679752 160.40625 285.30078125 C159.62878418 285.53039551 158.85131836 285.76000977 158.05029297 285.99658203 C141.5748003 290.88092495 125.83671118 297.78665356 109.98046875 304.34765625 C55.9772086 326.69214702 -0.15771102 340.97834853 -56.796875 318.375 C-74.38685824 310.97041992 -90.40093805 301.42626044 -104.36328125 288.375 C-106.40535319 286.47598038 -108.50826582 284.7024047 -110.65625 282.92578125 C-121.42213019 273.52184976 -130.30606007 260.5252934 -137.59375 248.30078125 C-141.53554101 256.18436326 -134.13988515 274.20947336 -131.59375 282.30078125 C-124.62859729 302.5516383 -113.30380333 319.76656534 -98.59375 335.30078125 C-97.82417969 336.12320312 -97.05460937 336.945625 -96.26171875 337.79296875 C-72.19081692 362.75826596 -37.71278183 378.61349263 -2.94921875 379.63671875 C-0.22623084 379.67777522 2.49549541 379.68432194 5.21875 379.67578125 C6.29698532 379.67396851 6.29698532 379.67396851 7.39700317 379.67211914 C41.2816391 379.51869128 71.44157039 368.09470084 102.47961426 355.45654297 C141.62400896 339.52082615 179.69207612 326.2248226 222.34170532 324.52529907 C242.48544209 323.68195741 260.24956646 321.58482937 278.40625 312.30078125 C279.49808594 311.74261719 280.58992188 311.18445313 281.71484375 310.609375 C288.82359917 306.70635133 294.61593177 301.95144431 300.40625 296.30078125 C301.2725 295.47578125 302.13875 294.65078125 303.03125 293.80078125 C304.206875 292.56328125 304.206875 292.56328125 305.40625 291.30078125 C305.98632812 290.71554687 306.56640625 290.1303125 307.1640625 289.52734375 C324.58958656 271.14512425 331.39921797 247.09460425 332.40625 222.30078125 C329.12064532 225.5401098 325.96864028 228.85020065 322.90625 232.30078125 C313.21296132 243.12307194 313.21296132 243.12307194 307.59375 243.67578125 C304.2049473 243.61405442 303.38925186 243.28944916 300.40625 241.30078125 C298.36724861 238.24227916 297.54667037 236.17316859 297.796875 232.46875 C299.29353271 227.14410237 303.62655141 223.18495607 307.3359375 219.2578125 C317.55310886 208.32256685 323.98455239 195.50180007 328.40625 181.30078125 C328.7465625 180.23085937 329.086875 179.1609375 329.4375 178.05859375 C335.36301808 155.61843733 331.8679366 131.97850243 320.44873047 112.02978516 C317.84644383 107.71376783 314.82387692 103.99158584 311.40625 100.30078125 C310.74012695 99.56529053 310.74012695 99.56529053 310.06054688 98.81494141 C256.2330957 39.89815182 155.97080233 30.07006939 81.03125 23.61328125 C79.98171646 23.52214554 79.98171646 23.52214554 78.91098022 23.4291687 C74.07869189 23.01419777 69.24447121 22.63958678 64.40625 22.30078125 C63.70723572 22.25165588 63.00822144 22.20253052 62.2880249 22.1519165 C48.52805594 21.22274167 34.76878703 21.08250493 20.98095703 21.06054688 C17.28005007 21.05077808 13.5796854 21.01960645 9.87890625 20.98828125 C-13.64093183 20.88292636 -34.05600171 24.50820613 -55.59375 34.30078125 Z " fill="#000000" transform="translate(159.59375,55.69921875)"/>
<path d="M0 0 C1.21647217 -0.00570007 2.43294434 -0.01140015 3.6862793 -0.01727295 C6.25145607 -0.02669346 8.81664478 -0.03324517 11.38183594 -0.03710938 C15.29904194 -0.04684156 19.21572885 -0.07790458 23.1328125 -0.109375 C25.63020523 -0.11590324 28.1276017 -0.12115441 30.625 -0.125 C32.37526489 -0.1435202 32.37526489 -0.1435202 34.16088867 -0.16241455 C40.30059911 -0.14563385 44.95369463 0.07838711 50.3125 3.203125 C52.79064609 6.61057587 53.3125 8.55369407 53.3125 12.765625 C52.03311148 17.16352304 51.05533223 18.50993896 47.3125 21.203125 C43.10019618 21.93736887 38.93024461 21.85229272 34.6640625 21.8046875 C33.41934174 21.81269379 32.17462097 21.82070007 30.8921814 21.82894897 C27.57995797 21.84813518 24.2690754 21.8476409 20.95690918 21.83514404 C-2.60534717 21.27896852 -2.60534717 21.27896852 -25.6875 25.203125 C-26.46770508 25.42210449 -27.24791016 25.64108398 -28.05175781 25.86669922 C-54.25867627 33.90959873 -75.17629327 51.54720543 -88.6875 75.203125 C-101.09866828 98.67701977 -105.19137393 127.31494097 -98.01171875 153.1328125 C-89.19998236 181.40351787 -70.51438679 204.15932692 -44.36328125 217.95703125 C-18.869644 230.22718959 7.67427971 231.34989619 34.9375 225.015625 C35.68588135 224.84401855 36.4342627 224.67241211 37.20532227 224.49560547 C54.96240538 220.04100924 71.98644292 212.63786148 88.875 205.703125 C134.50709324 186.99909066 178.96767232 174.39757194 228.5625 172.703125 C246.05776923 172.05783349 261.14773944 166.15488486 273.3125 153.203125 C284.99091471 140.00368056 288.52390722 124.55672718 287.53271484 107.33789062 C287.06701349 102.82337549 285.58635945 99.0876349 283.3125 95.203125 C282.735 94.1925 282.1575 93.181875 281.5625 92.140625 C280.82 91.17125 280.0775 90.201875 279.3125 89.203125 C278.80460937 88.53925781 278.29671875 87.87539062 277.7734375 87.19140625 C245.50384402 47.84996569 177.55867309 37.96432937 129.87939453 30.88793945 C128.71005371 30.70835693 127.54071289 30.52877441 126.3359375 30.34375 C125.31419434 30.19454102 124.29245117 30.04533203 123.23974609 29.89160156 C119.11292092 28.9209888 115.60073525 27.36253672 112.4375 24.515625 C110.77845024 21.10535605 110.63507438 17.87433481 111.3125 14.203125 C113.10613911 11.3930904 114.33130935 9.69372032 117.3125 8.203125 C126.76620669 7.41854692 135.93424226 9.05057872 145.1875 10.765625 C145.92316193 10.89906311 146.65882385 11.03250122 147.41677856 11.16998291 C198.77756178 20.5000248 268.14278926 33.74880912 300.2109375 79.9375 C310.20354634 95.87507866 311.96109233 114.39417338 308.28027344 132.70117188 C305.08946822 145.93068995 298.48922677 158.20172107 289.3125 168.203125 C288.31669922 169.33621094 288.31669922 169.33621094 287.30078125 170.4921875 C270.85231077 188.18721489 249.12565522 194.02577854 225.7727356 194.97915649 C201.85425799 195.99283408 178.44900725 198.85617644 155.3125 205.203125 C154.45543457 205.43306152 153.59836914 205.66299805 152.71533203 205.89990234 C132.31208486 211.45485093 112.87707187 219.68648497 93.32315063 227.63792419 C48.02144668 246.04934795 0.86563901 261.3608298 -46.8125 241.390625 C-78.2514165 227.55633264 -103.03423919 202.01381037 -115.66992188 170.03710938 C-127.79335622 137.44904769 -124.91083521 101.95339954 -111.09765625 70.59375 C-97.606308 42.02383606 -72.67467533 18.94519912 -43.14453125 7.73828125 C-28.86201866 2.64218851 -15.13525782 0.05512565 0 0 Z " fill="#000000" transform="translate(162.6875,95.796875)"/>
<path d="M0 0 C5.65633321 5.33048832 9.42909532 10.5453255 12.33203125 17.7421875 C12.69039063 18.6084375 13.04875 19.4746875 13.41796875 20.3671875 C17.5303333 31.05230565 15.34603192 42.39154483 11.33203125 52.7421875 C4.33441623 66.05064895 -7.09355555 73.54620933 -20.8984375 78.55078125 C-34.05790545 82.24154112 -49.35438332 80.23706113 -61.4765625 74.38671875 C-72.86170742 67.92300634 -81.98899127 58.63949193 -86.171875 45.9609375 C-89.07563115 32.97405958 -87.37737596 21.04241685 -80.42578125 9.71875 C-71.91063532 -2.45261679 -60.28210733 -9.83691722 -45.734375 -12.62890625 C-29.14684184 -15.09420934 -12.79619452 -10.82899039 0 0 Z M-59.48046875 17.0546875 C-64.20825329 22.10555527 -66.433758 27.83297049 -66.66796875 34.7421875 C-65.51375281 42.23231222 -62.49296527 47.86997851 -56.66796875 52.7421875 C-47.19093452 58.60336867 -37.69412903 60.46801989 -26.65234375 58.09375 C-18.71010015 55.49810055 -12.31781717 51.23490303 -8.23046875 43.8046875 C-5.40176584 37.23805574 -4.97207175 31.72586038 -7.5234375 24.98046875 C-10.61954193 18.92562971 -15.62742072 13.81944782 -21.66796875 10.7421875 C-35.28964773 6.50718367 -48.61919696 6.92053014 -59.48046875 17.0546875 Z " fill="#000000" transform="translate(210.66796875,148.2578125)"/>
<path d="M0 0 C3.45293166 2.6088817 4.78669341 4.2667586 6 8.4375 C6 12.53094236 5.22004022 14.59065251 3 18 C-1.04542504 20.69695002 -4.25174522 20.65090312 -9 20 C-12.74651998 18.08688341 -14.24704263 16.08095141 -15.5625 12.1875 C-16.1888546 8.99607419 -15.95315626 7.03739267 -14.5 4.125 C-12.80726306 1.63701752 -11.89853156 0.94705994 -9.125 -0.5 C-5.59782838 -1.06434746 -3.41121858 -1.08868678 0 0 Z " fill="#000000" transform="translate(241,99)"/>
<path d="M0 0 C2.9375 2.4375 2.9375 2.4375 5 5 C5.33 5.33 5.66 5.66 6 6 C6.44272663 15.00210822 6.44272663 15.00210822 4 18 C0.60229091 20.29147823 -1.44666853 21 -5.5625 21 C-9.7332414 19.78669341 -11.3911183 18.45293166 -14 15 C-15.03027506 11.70311982 -15.17298003 9.72651613 -14.375 6.375 C-11.04129335 0.61677942 -6.44480852 -1.56237782 0 0 Z " fill="#000000" transform="translate(447,297)"/>
</svg>
